<svg xmlns="http://www.w3.org/2000/svg" xmlns:xlink="http://www.w3.org/1999/xlink" width="94" height="94" viewBox="0 0 94 94"><defs><style>.a{fill:#e5e5e5;}.b{clip-path:url(#c);}.c{fill:#f5edff;}.d{fill:#ffc845;}.e{fill:#ff9903;}.f{fill:#ffe9c5;}.g{fill:#ff464c;}.h{fill:#ff8089;}.i{fill:#61ccfb;}.j{fill:#99e5ff;}.k{fill:#7b0c96;}.l{filter:url(#d);}.m{filter:url(#a);}</style><filter id="a" x="-9" y="-2" width="112" height="112" filterUnits="userSpaceOnUse"><feOffset dy="7" input="SourceAlpha"/><feGaussianBlur stdDeviation="3" result="b"/><feFlood flood-opacity="0.161"/><feComposite operator="in" in2="b"/><feComposite in="SourceGraphic"/></filter><clipPath id="c"><g class="m" transform="matrix(1, 0, 0, 1, 0, 0)"><rect class="a" width="94" height="94" rx="13" transform="translate(22 112)"/></g></clipPath><filter id="d" x="-9" y="-2" width="112" height="112" filterUnits="userSpaceOnUse"><feOffset dy="7" input="SourceAlpha"/><feGaussianBlur stdDeviation="3" result="e"/><feFlood flood-opacity="0.161"/><feComposite operator="in" in2="e"/><feComposite in="SourceGraphic"/></filter></defs><g class="b" transform="translate(-22 -112)"><g class="l" transform="matrix(1, 0, 0, 1, 22, 112)"><rect class="a" width="94" height="94" rx="13"/></g><g transform="translate(9.318 99.317)"><circle class="c" cx="36.33" cy="36.33" r="36.33" transform="translate(34.023 30.562)"/><circle class="c" cx="5.474" cy="5.474" r="5.474" transform="translate(91.081 19.456)"/><circle class="c" cx="9.158" cy="9.158" r="9.158" transform="translate(12.683 16.144)"/><path class="d" d="M97.822,75.653,66.274,92.195V61.238L97.822,44.7Z"/><path class="e" d="M94.328,46.529V71.835L66.274,86.544v5.65L97.822,75.653V44.7Z"/><path class="f" d="M68.748,62.909,97.822,47.665V44.7L66.274,61.238V92.195l2.474-1.3Z"/><path class="d" d="M31.747,76.49,62.779,92.76V62.31L31.747,46.039Z"/><path class="e" d="M59.643,60.665v26.01l-27.9-14.626V76.49L62.779,92.76V62.31Z"/><path class="f" d="M33.5,49.342,62.779,64.7V62.31L31.747,46.039V76.49l1.749.917Z"/><path class="d" d="M63.071,26.028,31.805,42.553,63.071,58.946,94.336,42.421Z"/><path class="e" d="M63.071,54.949,35.6,40.547l-3.8,2.007L63.071,58.946,94.336,42.421l-3.8-1.991Z"/><path class="f" d="M63.362,28.706,91.938,43.688l2.4-1.267L63.071,26.028,31.805,42.553l2.69,1.41Z"/><path class="g" d="M31,51.471,41.07,57.042v5.464L31,56.935Z"/><path class="h" d="M32.1,53.4,41.07,58.36V57.042L31,51.471v5.464l1.1.608Z"/><path class="i" d="M96.754,63.315v5.974L84.231,76.067V69.979Z"/><path class="j" d="M85.785,70.734,96.754,64.9V63.315L84.231,69.979v6.089l1.554-.841Z"/><path class="k" d="M63.071,77.512a1.457,1.457,0,0,0,1.457-1.457V74.21a1.457,1.457,0,1,0-2.914,0v1.845A1.457,1.457,0,0,0,63.071,77.512ZM44.277,81.354l-1.234-.647a1.457,1.457,0,1,0-1.353,2.581l1.234.647a1.457,1.457,0,0,0,1.353-2.581Zm34-49.2,1.629.854a1.457,1.457,0,0,0,1.354-2.581l-1.63-.854a1.457,1.457,0,1,0-1.353,2.581Z"/><path class="k" d="M98.988,40.73a1.457,1.457,0,0,0-.781-1.288L85.751,32.912A1.457,1.457,0,1,0,84.4,35.492l10,5.246L80.747,47.956,49.417,31.529l13.656-7.218,10.434,5.47A1.457,1.457,0,1,0,74.861,27.2L63.747,21.374a1.458,1.458,0,0,0-1.357,0L27.93,39.59c-.012.006-.022.015-.034.021l-.039.021c-.018.011-.035.024-.052.036s-.048.032-.072.05-.056.045-.083.069-.042.037-.062.057-.05.053-.074.08-.036.041-.053.063-.043.06-.063.09-.031.045-.044.068-.035.066-.052.1-.024.046-.034.07-.027.074-.039.111-.017.046-.023.07c-.012.043-.02.086-.027.131,0,.02-.009.039-.011.058a1.443,1.443,0,0,0-.013.194V74.693a1.457,1.457,0,0,0,.781,1.29l9.514,4.988A1.457,1.457,0,0,0,38.8,78.39l-8.733-4.579V57.347L41.6,63.728a1.457,1.457,0,0,0,2.162-1.275V55.022a1.458,1.458,0,0,0-.752-1.275L30.067,46.585v-3.3l31.546,16.54V69.4a1.457,1.457,0,1,0,2.914,0V59.827l31.546-16.54v15.9l-15.11,8.04a1.457,1.457,0,0,0-.773,1.286v7.723a1.457,1.457,0,0,0,2.151,1.281L96.073,70.09v3.721L64.527,90.351V80.912a1.457,1.457,0,1,0-2.914,0v9.439l-12.8-6.708a1.457,1.457,0,1,0-1.353,2.581l14.928,7.827c.02.011.042.018.062.028s.046.022.071.031.073.026.109.038.045.015.067.021c.04.01.081.018.121.024.021,0,.042.009.062.011a1.54,1.54,0,0,0,.157.011l.028,0a1.4,1.4,0,0,0,.187-.013L63.3,94.2c.046-.007.093-.016.139-.028.021-.005.042-.013.064-.02.038-.012.076-.024.114-.04s.046-.021.069-.031.041-.016.06-.027l34.46-18.068a1.457,1.457,0,0,0,.781-1.29V40.878c0-.025,0-.05,0-.075S98.988,40.755,98.988,40.73ZM77.621,49.607,63.068,57.3,31.739,40.873l14.553-7.692ZM40.85,55.881v4.1L30.068,54.017v-4.1ZM83.106,73.8v-4.4l12.968-6.9v4.283Z"/></g></g></svg>