<svg xmlns="http://www.w3.org/2000/svg" width="22" height="22" viewBox="0 0 22 22"><defs><style>.a{fill:none;}.b{fill:#f5671a;}</style></defs><path class="a" d="M0,0H22V22H0Z"/><path class="b" d="M11.167,2a9.167,9.167,0,1,0,9.167,9.167A9.17,9.17,0,0,0,11.167,2Zm0,16.5A7.333,7.333,0,1,1,18.5,11.167,7.343,7.343,0,0,1,11.167,18.5ZM14.723,7.766l-5.39,5.39L7.61,11.433a.914.914,0,0,0-1.293,1.292L8.692,15.1a.913.913,0,0,0,1.292,0l6.041-6.041a.913.913,0,0,0,0-1.293.924.924,0,0,0-1.3,0Z" transform="translate(-0.167 -0.167)"/></svg>