<svg xmlns="http://www.w3.org/2000/svg" width="18" height="18" viewBox="0 0 18 18"><defs><style>.a{fill-rule:evenodd;}</style></defs><path class="a" d="M20,5H18.829a3,3,0,0,0-5.659,0H4A1,1,0,0,0,4,7h9.171a3,3,0,0,0,5.659,0H20a1,1,0,0,0,0-2ZM16,7a1,1,0,1,0-1-1A1,1,0,0,0,16,7ZM3,12a1,1,0,0,1,1-1H5.171a3,3,0,0,1,5.659,0H20a1,1,0,0,1,0,2H10.829a3,3,0,0,1-5.659,0H4A1,1,0,0,1,3,12Zm5,1a1,1,0,1,0-1-1A1,1,0,0,0,8,13ZM4,17a1,1,0,0,0,0,2h9.171a3,3,0,0,0,5.659,0H20a1,1,0,0,0,0-2H18.829a3,3,0,0,0-5.659,0Zm13,1a1,1,0,1,1-1-1A1,1,0,0,1,17,18Z" transform="translate(-3 -3)"/></svg>