<svg xmlns="http://www.w3.org/2000/svg" xmlns:xlink="http://www.w3.org/1999/xlink" width="46" height="46" viewBox="0 0 46 46"><defs><style>.a{fill:#fff;stroke:#707070;}.b{clip-path:url(#a);}.c{fill:#665661;}.d{fill:#e4a95e;}.e{fill:#53bbf3;}.f{fill:#a9e3f4;}.g{fill:#7cc9f2;}.h{fill:#ffd27c;}.i{fill:#ffb963;}.j{fill:#776471;}.k{fill:#5b4d57;}</style><clipPath id="a"><circle class="a" cx="23" cy="23" r="23" transform="translate(37 484)"/></clipPath></defs><g class="b" transform="translate(-37 -484)"><g transform="translate(37 484)"><path class="c" d="M46.035,33.923,40.07,46.912l-.584,1.276c-2.374.218-4.3,3.729-7.439,3.729a4.225,4.225,0,0,1-1.7-.356c-.119-.049-.237-.1-.356-.158a3.134,3.134,0,0,1-.406-.208q-.326-.2-.653-.415c-.415-.277-.821-.594-1.217-.91-.158-.119-.317-.237-.465-.356-.287-.218-.574-.435-.861-.613-.069-.049-.138-.089-.218-.138a3.71,3.71,0,0,0-.435-.237,3.913,3.913,0,0,0-.613-.237,2.421,2.421,0,0,0-.366-.079,2.652,2.652,0,0,0-1.118.079,3.913,3.913,0,0,0-.613.237c-.138.069-.287.148-.435.237-.079.049-.148.089-.218.138-.287.178-.574.4-.861.613-.148.119-.307.237-.465.356-.4.317-.8.633-1.217.91q-.326.223-.653.415a3.134,3.134,0,0,1-.406.208c-.119.059-.237.109-.356.158a4.225,4.225,0,0,1-1.7.356c-3.027,0-4.926-3.274-7.192-3.7h-.01L8.889,46.9,2.735,33.923l20.9-11.337.742-.406.742.406Z" transform="translate(-1.38 -5.917)"/><path class="d" d="M28.634,56.09c2.483,0,4.432,3.739,7.667,3.739H20.968C24.2,59.83,26.151,56.09,28.634,56.09Z" transform="translate(-5.634 -13.83)"/><path class="e" d="M16.3,59.83H.968c3.235,0,5.184-3.739,7.667-3.739a2.46,2.46,0,0,1,.465.04h.01C11.375,56.555,13.274,59.83,16.3,59.83Zm30.667,0H31.634c3.136,0,5.065-3.512,7.439-3.729a1.681,1.681,0,0,1,.228-.01C41.784,56.09,43.733,59.83,46.968,59.83Zm-15.333,0H16.3c2.908,0,4.778-3.027,6.925-3.631a2.584,2.584,0,0,1,1.484,0C26.856,56.8,28.726,59.83,31.634,59.83Z" transform="translate(-0.968 -13.83)"/><path class="f" d="M41.046,16.5V27.482L27.3,20.033l-.742-.406-.742.406L12.09,27.482V16.5l9.685-3.522,2.186-.8,2.6-.94,2.6.95,2.186.791Z" transform="translate(-3.563 -3.364)"/><path class="g" d="M27.918,21.013l-1.355-.742L12.09,28.126V29.59l13.731-7.449.742-.406.742.406L41.046,29.59V28.126Z" transform="translate(-3.563 -5.472)"/><path class="h" d="M32.781.968V9.792l-2.6-.95-2.592.94V.968Z" transform="translate(-7.179 -0.968)"/><path class="i" d="M30.179,9.458l-2.592.94v1.365l2.592-.94,2.6.95V10.408Z" transform="translate(-7.179 -2.949)"/><path class="j" d="M31.484,30.29V50.006a2.584,2.584,0,0,0-1.484,0V30.29a.742.742,0,1,1,1.484,0Z" transform="translate(-7.742 -7.637)"/><path class="k" d="M41.586,54.413a2.585,2.585,0,0,0-.346.02,7.446,7.446,0,0,0-3.759,1.939c-1.167.91-2.275,1.781-3.561,1.781s-2.384-.861-3.561-1.781a9.165,9.165,0,0,0-3.017-1.8,3.82,3.82,0,0,0-2.176,0,9.165,9.165,0,0,0-3.017,1.8c-1.177.92-2.285,1.781-3.561,1.781s-2.394-.871-3.561-1.781a8.226,8.226,0,0,0-3.393-1.9l-.138-.02a3.73,3.73,0,0,0-.574-.04.851.851,0,0,0-.158.01l.623,1.316h.01c2.265.425,4.165,3.7,7.192,3.7,2.908,0,4.778-3.027,6.925-3.631a2.584,2.584,0,0,1,1.484,0c2.147.6,4.016,3.631,6.925,3.631,3.136,0,5.065-3.512,7.439-3.729l.584-1.276C41.824,54.423,41.7,54.413,41.586,54.413Z" transform="translate(-3.253 -13.438)"/><path class="j" d="M28.058,21.457v3a.742.742,0,1,1-1.484,0v-3l.742-.406Zm-12-.3a.742.742,0,0,1-.253-1.438l2.032-.739a.742.742,0,0,1,.506,1.394l-2.031.739a.741.741,0,0,1-.254.045Zm3.9-1.591a.742.742,0,0,1-.253-1.439l2.031-.739a.742.742,0,1,1,.507,1.395l-2.032.739a.755.755,0,0,1-.253.045Zm18.548,1.591a.741.741,0,0,1-.254-.045l-2.032-.741a.742.742,0,1,1,.507-1.394l2.032.739a.742.742,0,0,1-.253,1.438Zm-3.9-1.591a.737.737,0,0,1-.254-.045l-2.031-.739a.742.742,0,0,1,.507-1.395l2.031.739a.742.742,0,0,1-.253,1.439Z" transform="translate(-4.316 -4.788)"/></g></g></svg>