<svg xmlns="http://www.w3.org/2000/svg" xmlns:xlink="http://www.w3.org/1999/xlink" width="24" height="24" viewBox="0 0 24 24"><defs><style>.a{fill:#fff;}.a,.c{stroke:#f5671a;}.b{clip-path:url(#a);}.c,.j{fill:none;}.d{fill:#dedeca;}.d,.e,.f,.g,.h{fill-rule:evenodd;}.e{fill:#b3b2a4;}.f{fill:#d5915b;}.g{fill:#b85756;}.h{fill:#4c5665;}.i{stroke:none;}</style><clipPath id="a"><circle class="a" cx="12" cy="12" r="12" transform="translate(55 215)"/></clipPath></defs><g class="b" transform="translate(-55 -215)"><g class="c" transform="translate(55 215)"><circle class="i" cx="12" cy="12" r="12"/><circle class="j" cx="12" cy="12" r="11.5"/></g><g transform="translate(57.5 217.5)"><path class="d" d="M19,9.5A9.5,9.5,0,1,1,9.5,0,9.5,9.5,0,0,1,19,9.5"/><path class="e" d="M6.125,15.656a1.188,1.188,0,0,1-1.187-1.187v-.594A1.188,1.188,0,0,1,3.75,12.688V7.938A1.188,1.188,0,0,1,4.938,6.75h6.531a1.187,1.187,0,0,1,1.188,1.188v5.938H7.313v.594a1.187,1.187,0,0,1-1.187,1.188" transform="translate(-0.781 -1.406)"/><path class="e" d="M16.938,16.281a1.188,1.188,0,0,1-1.187-1.187V9.75h2.375a1.188,1.188,0,0,1,1.188,1.188V14.5H18.125v.594a1.187,1.187,0,0,1-1.187,1.188" transform="translate(-3.281 -2.031)"/><path class="f" d="M12.656,11.938v1.188H4.938A1.188,1.188,0,0,1,3.75,11.938V7.188A1.188,1.188,0,0,1,4.938,6h6.531a1.187,1.187,0,0,1,1.188,1.188v4.75" transform="translate(-0.781 -1.25)"/><path class="g" d="M19.313,13.75H15.75V9h2.375a1.188,1.188,0,0,1,1.188,1.188V13.75" transform="translate(-3.281 -1.875)"/><path class="h" d="M6.438,16.938A1.187,1.187,0,0,0,7.625,15.75H5.25a1.188,1.188,0,0,0,1.188,1.188" transform="translate(-1.094 -3.281)"/><path class="h" d="M16.938,16.938a1.188,1.188,0,0,0,1.188-1.187H15.75a1.188,1.188,0,0,0,1.188,1.188" transform="translate(-3.281 -3.281)"/></g></g></svg>