<svg xmlns="http://www.w3.org/2000/svg" xmlns:xlink="http://www.w3.org/1999/xlink" width="52" height="52" viewBox="0 0 52 52"><defs><style>.a{fill:#e5e5e5;}.b{clip-path:url(#a);}.c{fill:#f5edff;}.d{fill:#ffc845;}.e{fill:#ff9903;}.f{fill:#ffe9c5;}.g{fill:#ff464c;}.h{fill:#ff8089;}.i{fill:#61ccfb;}.j{fill:#99e5ff;}.k{fill:#7b0c96;}</style><clipPath id="a"><rect class="a" width="52" height="52" rx="13" transform="translate(43 149)"/></clipPath></defs><g class="b" transform="translate(-43 -149)"><g transform="translate(35.984 141.984)"><circle class="c" cx="20.097" cy="20.097" r="20.097" transform="translate(18.821 16.907)"/><circle class="c" cx="3.028" cy="3.028" r="3.028" transform="translate(50.385 10.763)"/><circle class="c" cx="5.066" cy="5.066" r="5.066" transform="translate(7.016 8.931)"/><path class="d" d="M54.115,41.851,36.662,51V33.876l17.453-9.15Z"/><path class="e" d="M52.181,25.739v14L36.662,47.876V51l17.453-9.15V24.726Z"/><path class="f" d="M38.031,34.8l16.084-8.433V24.726l-17.453,9.15V51l1.369-.718Z"/><path class="d" d="M17.562,42.313l17.167,9V34.469l-17.167-9Z"/><path class="e" d="M32.994,33.559V47.948L17.562,39.857v2.456l17.167,9V34.469Z"/><path class="f" d="M18.529,27.3l16.2,8.494v-1.32l-17.167-9V42.313l.967.507Z"/><path class="d" d="M34.89,14.4l-17.3,9.142,17.3,9.068,17.3-9.141Z"/><path class="e" d="M34.89,30.4l-15.2-7.967-2.1,1.11,17.3,9.068,17.3-9.141-2.1-1.1Z"/><path class="f" d="M35.051,15.88l15.808,8.288,1.327-.7L34.89,14.4l-17.3,9.142,1.488.78Z"/><path class="g" d="M17.148,28.473l5.571,3.082v3.023L17.148,31.5Z"/><path class="h" d="M17.756,29.538l4.964,2.746v-.729l-5.571-3.082V31.5l.608.336Z"/><path class="i" d="M53.523,35.025v3.3L46.6,42.08V38.712Z"/><path class="j" d="M47.456,39.13,53.523,35.9v-.876L46.6,38.712V42.08l.86-.465Z"/><path class="k" d="M34.89,42.879a.806.806,0,0,0,.806-.806V41.052a.806.806,0,1,0-1.612,0v1.021A.806.806,0,0,0,34.89,42.879ZM24.493,45l-.683-.358a.806.806,0,1,0-.749,1.428l.683.358A.806.806,0,0,0,24.493,45ZM43.3,17.788l.9.473a.806.806,0,0,0,.749-1.428l-.9-.473a.806.806,0,1,0-.749,1.428Z"/><path class="k" d="M54.759,22.532a.806.806,0,0,0-.432-.713l-6.89-3.613a.806.806,0,1,0-.749,1.428l5.535,2.9-7.554,3.993L27.337,17.442l7.554-3.993,5.772,3.026a.806.806,0,1,0,.749-1.428l-6.148-3.224a.806.806,0,0,0-.751,0L15.451,21.9l-.019.012-.022.011-.029.02-.04.028c-.016.012-.031.025-.046.038l-.035.031c-.014.014-.028.029-.041.044s-.02.023-.03.035-.024.033-.035.05-.017.025-.024.038-.019.036-.029.055-.013.025-.019.039-.015.041-.022.062-.009.025-.013.039-.011.048-.015.072,0,.021-.006.032a.8.8,0,0,0-.007.107V41.319a.806.806,0,0,0,.432.714l5.263,2.759a.806.806,0,0,0,.749-1.428l-4.831-2.533V31.724l6.381,3.53a.806.806,0,0,0,1.2-.705V30.437a.807.807,0,0,0-.416-.705l-7.161-3.962V23.946L34.084,33.1v5.3a.806.806,0,0,0,1.612,0V33.1l17.451-9.15v8.8l-8.359,4.448a.806.806,0,0,0-.427.712v4.272a.806.806,0,0,0,1.19.709l7.6-4.112v2.058L35.7,49.981V44.76a.806.806,0,1,0-1.612,0v5.221L27.006,46.27a.806.806,0,1,0-.748,1.428l8.258,4.33c.011.006.023.01.034.016l.039.017c.02.008.04.015.06.021l.037.012c.022.006.045.01.067.014l.035.006a.851.851,0,0,0,.087.006h.015a.777.777,0,0,0,.1-.007l.024,0c.026,0,.051-.009.077-.016l.035-.011c.021-.007.042-.013.063-.022l.038-.017.033-.015,19.063-10a.806.806,0,0,0,.432-.714V22.613c0-.014,0-.028,0-.042S54.759,22.545,54.759,22.532Zm-11.82,4.911L34.889,31.7,17.558,22.611l8.051-4.255ZM22.6,30.913v2.269l-5.965-3.3V27.613Zm23.375,9.91V38.388l7.174-3.817V36.94Z"/></g></g></svg>