<svg xmlns="http://www.w3.org/2000/svg" xmlns:xlink="http://www.w3.org/1999/xlink" width="46" height="46" viewBox="0 0 46 46"><defs><style>.a{fill:#fff;stroke:#707070;}.b{clip-path:url(#a);}.c{fill:#ed664c;}.d{fill:#fdc75b;}.e{fill:#083863;}</style><clipPath id="a"><circle class="a" cx="23" cy="23" r="23" transform="translate(45 491)"/></clipPath></defs><g class="b" transform="translate(-45 -491)"><g transform="translate(43.343 489.348)"><path class="c" d="M31.357,25.8V15.221H35.22a5.859,5.859,0,0,1,2.3.472v7.042a.966.966,0,0,0,.963.963H46.1a5.733,5.733,0,0,1,.6,2.572v8.969H42.869a4.153,4.153,0,0,0-8.3,0H31.376V25.8Z"/><path class="c" d="M46.1,23.7h-7.61a.966.966,0,0,1-.963-.963V15.693a5.851,5.851,0,0,1,1.628,1.06l5.693,5.27A5.743,5.743,0,0,1,46.1,23.7Z"/><path class="d" d="M42.869,35.239v.106a4.152,4.152,0,0,1-8.3,0v-.106a4.153,4.153,0,0,1,8.3,0Zm-2.389.106a1.768,1.768,0,1,0-.518,1.255A1.773,1.773,0,0,0,40.48,35.345Z"/><path class="d" d="M38.707,33.573a1.768,1.768,0,1,1-1.255.518,1.773,1.773,0,0,1,1.255-.518Z"/><path class="c" d="M31.357,25.8v9.441H14.826a4.153,4.153,0,0,0-8.3,0H2.62V25.8Z"/><path class="d" d="M31.357,24.71v1.1H2.62V13.67A3.852,3.852,0,0,1,6.474,9.817H27.5a3.852,3.852,0,0,1,3.853,3.853ZM6.522,35.239a4.153,4.153,0,0,1,8.3,0v.106a4.157,4.157,0,0,1-8.314,0,.4.4,0,0,0,.01-.106Zm5.925.106a1.768,1.768,0,1,0-.518,1.255,1.773,1.773,0,0,0,.518-1.255Z"/><path class="d" d="M10.674,33.573a1.768,1.768,0,1,1-1.255.518,1.773,1.773,0,0,1,1.255-.518Z"/><path class="e" d="M45.5,21.319l-5.693-5.27a6.876,6.876,0,0,0-1.9-1.243,6.739,6.739,0,0,0-2.678-.559H32.32V13.66A4.818,4.818,0,0,0,27.5,8.844H6.474A4.818,4.818,0,0,0,1.657,13.66V35.23a.966.966,0,0,0,.963.963H5.626a5.119,5.119,0,0,0,10.1,0H33.659a5.119,5.119,0,0,0,10.1,0h2.938a.966.966,0,0,0,.963-.963V26.261a6.743,6.743,0,0,0-.7-3A6.644,6.644,0,0,0,45.5,21.319Zm-1.31,1.416h-5.7V17.456l.01.01ZM6.474,10.78H27.5a2.9,2.9,0,0,1,2.89,2.89V24.845H3.584V13.67a2.9,2.9,0,0,1,2.89-2.89Zm4.2,27.764a3.192,3.192,0,0,1-3.189-3.189v-.087h0a3.215,3.215,0,0,1,3.189-3.112,3.17,3.17,0,0,1,3.189,3.112v.077a3.189,3.189,0,0,1-3.189,3.2Zm3.584-6.859a5.125,5.125,0,0,0-8.583,2.591H3.584V26.762h26.81v7.514H15.683a5.159,5.159,0,0,0-1.426-2.591Zm24.45,6.859a3.192,3.192,0,0,1-3.189-3.189v-.087h0a3.177,3.177,0,0,1,3.189-3.112A3.209,3.209,0,0,1,41.9,35.268v.077a3.189,3.189,0,0,1-3.189,3.2Zm7.032-4.268H43.726a5.125,5.125,0,0,0-10.019,0H32.33V16.184h2.909a4.771,4.771,0,0,1,1.329.193v6.358A1.932,1.932,0,0,0,38.5,24.662H45.47a4.79,4.79,0,0,1,.279,1.609v8.005Z"/><path class="e" d="M10.674,32.609a2.736,2.736,0,1,0,2.736,2.736A2.736,2.736,0,0,0,10.674,32.609Zm0,3.545a.8.8,0,1,1,.574-.235A.809.809,0,0,1,10.674,36.155Zm28.034-3.545a2.736,2.736,0,1,0,2.736,2.736,2.736,2.736,0,0,0-2.736-2.736Zm0,3.545a.8.8,0,1,1,.574-.235A.809.809,0,0,1,38.707,36.155Zm-23.747-15.7a.963.963,0,0,0,.684.289h0a1,1,0,0,0,.684-.279l4.634-4.634A.96.96,0,0,0,19.6,14.47l-3.95,3.95-1.917-1.946a.961.961,0,0,0-1.368,1.349Z"/></g></g></svg>