<svg xmlns="http://www.w3.org/2000/svg" xmlns:xlink="http://www.w3.org/1999/xlink" width="375" height="244" viewBox="0 0 375 244"><defs><style>.a,.c{fill:#fff;}.a{stroke:#707070;}.b{clip-path:url(#a);}.d{fill:#ebf3fa;}.e{fill:#f8fbff;}.f{fill:#c4d9ed;}.g{fill:#d5e7f7;}.h{fill:#dceaf9;}.i{opacity:0.8;}.j{fill:#adc9e0;}.k{fill:#abc6dd;}.l,.m{fill:#a8302d;}.aa,.m,.s{opacity:0.3;}.n{fill:#661717;}.o{fill:#c94c43;}.p{fill:#631818;}.q{fill:#822121;}.r{fill:#a2c2dd;}.s{fill:#8e2323;}.t{fill:#8e2525;}.u{fill:#f99746;}.v{fill:#699ff0;}.w{fill:#a8d29f;}.x{fill:#283250;}.y{fill:#ffb27d;}.z{fill:#ffc197;}.aa{fill:#e2915a;}.ab,.ac{fill:#d3671e;}.ac,.ad{opacity:0.4;}.ad{fill:#d86713;}.ae{fill:#fbecdb;}.af{fill:#fce6d2;}.ag{fill:#f1a34f;}.ah{fill:#ddb997;}.ai{fill:#ca5f00;}</style><clipPath id="a"><rect class="a" width="375" height="244" rx="17" transform="translate(0 54)"/></clipPath></defs><g class="b" transform="translate(0 -54)"><g transform="translate(0 56.316)"><rect class="c" width="375" height="197.368"/><path class="d" d="M334.96,177.1s-16.126.026-40.711.079c-72,.131-216.632.361-241.863.248-33.852-.154-57.278-87.766,6.029-81.813,68.759,6.448,18.467-33,58.97-39.545,44.078-7.131,52.965,20.29,84.618,9.084,43.266-15.323,66.767-9.989,81.827,1.193,16.515,12.268,22.845,31.574,33.938,38.324q.373.241.747.433c21.542,11.794,31.3,23.212,34.484,33.343C360.1,160.924,334.96,177.1,334.96,177.1Z"/><path class="e" d="M317.767,104.671,154.441,132.443,142.25,117.819,283.827,66.345C300.344,78.613,306.68,97.914,317.767,104.671Z"/><path class="e" d="M232.494,70.162,70.868,122.243c4.761-3.471-6.188-22.287.241-28.531Z"/><path class="e" d="M252.367,61.377a3.9,3.9,0,1,0,3.9,3.9,3.9,3.9,0,0,0-3.9-3.9Z"/><rect class="f" width="18.441" height="89.674" transform="translate(201.949 74.093)"/><rect class="g" width="18.441" height="89.674" transform="translate(206.091 74.093)"/><rect class="f" width="18.436" height="5.182" transform="translate(224.532 79.249) rotate(180)"/><rect class="f" width="18.436" height="5.182" transform="translate(224.532 90.49) rotate(180)"/><rect class="f" width="18.436" height="5.182" transform="translate(224.532 101.728) rotate(180)"/><rect class="f" width="18.436" height="5.182" transform="translate(224.532 112.966) rotate(180)"/><rect class="f" width="18.436" height="5.182" transform="translate(224.532 124.205) rotate(180)"/><rect class="f" width="18.436" height="5.182" transform="translate(224.532 135.443) rotate(180)"/><rect class="f" width="18.436" height="5.182" transform="translate(224.532 146.683) rotate(180)"/><rect class="f" width="18.436" height="5.182" transform="translate(224.532 157.921) rotate(180)"/><rect class="f" width="18.441" height="76.985" transform="translate(231.428 86.781)"/><rect class="g" width="18.441" height="76.985" transform="translate(235.569 86.781)"/><rect class="f" width="18.436" height="4.448" transform="translate(254.01 91.209) rotate(180)"/><rect class="f" width="18.436" height="4.448" transform="translate(254.01 100.858) rotate(180)"/><rect class="f" width="18.436" height="4.448" transform="translate(254.01 110.506) rotate(180)"/><rect class="f" width="18.436" height="4.448" transform="translate(254.01 120.154) rotate(180)"/><rect class="f" width="18.436" height="4.448" transform="translate(254.01 129.802) rotate(180)"/><rect class="f" width="18.436" height="4.448" transform="translate(254.01 139.452) rotate(180)"/><rect class="f" width="18.436" height="4.448" transform="translate(254.01 149.1) rotate(180)"/><rect class="f" width="18.436" height="4.448" transform="translate(254.01 158.747) rotate(180)"/><rect class="h" width="7.723" height="11.261" transform="translate(199.691 172.276) rotate(180)"/><path class="g" d="M194.327,145.654v31.262H111.973l-20.871-.2c-.018-.031-.039-.067-.064-.11l-.12-.212-.057-.087c-.063-.111-.132-.241-.211-.379-.1-.173-.2-.372-.32-.592h0c-.439-.823-1.022-1.964-1.685-3.382q-.327-.7-.675-1.486c-.093-.209-.185-.421-.279-.639h0c-.091-.209-.183-.425-.274-.644l-.01-.022c-.063-.15-.128-.3-.191-.459s-.132-.319-.2-.481c-.342-.842-.691-1.731-1.039-2.67-.01-.024-.018-.051-.028-.075h0q-.342-.923-.679-1.9c-.12-.361-.241-.722-.368-1.1l-.022-.07c-.054-.165-.107-.33-.161-.5-.045-.141-.089-.28-.132-.421q-.137-.437-.273-.882c-.12-.38-.231-.768-.344-1.159q-.229-.8-.448-1.622l-.13-.5c-.128-.5-.254-1-.375-1.509-.04-.164-.078-.327-.12-.492-.025-.1-.048-.2-.071-.3q-.276-1.2-.522-2.464-.27-1.382-.493-2.814-.206-1.324-.368-2.685-.152-1.284-.258-2.6c-.167-2.046-.241-4.158-.211-6.3a58.614,58.614,0,0,1,1.29-11.493c.03-.142.061-.283.093-.426q.313-1.392.7-2.79.3-1.067.643-2.134.253-.773.528-1.548.628-1.752,1.4-3.506h.437V115.3A58.8,58.8,0,0,1,98.823,97.674l.329-.315h.342v11.959h10.59v-19.5h11.674v12.65h2.663v-15.1h11.674v28.309h14.77v16.51h5.518v4.162h12.676v-7.162h7.279V109.725h9v35.929Z"/><rect class="f" width="11.684" height="2.885" transform="translate(136.112 92.161) rotate(180)"/><rect class="f" width="11.684" height="2.885" transform="translate(136.112 97.582) rotate(180)"/><rect class="f" width="11.684" height="2.885" transform="translate(136.112 102.457) rotate(180)"/><rect class="f" width="11.684" height="2.885" transform="translate(121.774 102.457) rotate(180)"/><rect class="f" width="11.684" height="2.885" transform="translate(121.774 97.582) rotate(180)"/><rect class="f" width="11.684" height="2.885" transform="translate(121.774 92.714) rotate(180)"/><rect class="f" width="26.026" height="2.885" transform="translate(136.112 107.186) rotate(180)"/><rect class="f" width="26.026" height="2.885" transform="translate(136.112 111.914) rotate(180)"/><rect class="f" width="9.069" height="4.453" transform="translate(185.334 114.181) rotate(180)"/><rect class="f" width="9.069" height="4.453" transform="translate(185.334 120.803) rotate(180)"/><rect class="f" width="9.069" height="4.453" transform="translate(185.334 127.425) rotate(180)"/><rect class="f" width="9.069" height="4.453" transform="translate(185.334 134.368) rotate(180)"/><rect class="f" width="9.069" height="4.453" transform="translate(185.334 141.094) rotate(180)"/><rect class="f" width="9.069" height="4.453" transform="translate(185.334 147.822) rotate(180)"/><rect class="f" width="9.069" height="4.453" transform="translate(185.334 154.86) rotate(180)"/><rect class="f" width="26.026" height="1.832" transform="translate(136.112 115.48) rotate(180)"/><rect class="f" width="3.344" height="19.461" transform="translate(173.045 109.727)"/><rect class="f" width="6.726" height="7.163" transform="translate(162.343 129.188)"/><path class="f" d="M110.089,89.828v19.479h-2.321V90.058l.313-.23Z"/><rect class="f" width="1.425" height="15.091" transform="translate(123.003 87.366)"/><g class="i"><rect class="f" width="1.98" height="2.791" transform="translate(148.461 121.312) rotate(180)"/><rect class="f" width="1.98" height="2.791" transform="translate(144.76 121.312) rotate(180)"/><rect class="f" width="1.98" height="2.791" transform="translate(141.14 121.312) rotate(180)"/><rect class="f" width="1.98" height="2.791" transform="translate(137.708 121.312) rotate(180)"/><rect class="f" width="1.98" height="2.791" transform="translate(134.212 121.312) rotate(180)"/><rect class="f" width="1.98" height="2.791" transform="translate(130.674 121.312) rotate(180)"/><rect class="f" width="1.98" height="2.791" transform="translate(126.972 121.312) rotate(180)"/><rect class="f" width="1.98" height="2.791" transform="translate(123.352 121.312) rotate(180)"/><rect class="f" width="1.98" height="2.791" transform="translate(119.921 121.312) rotate(180)"/><rect class="f" width="1.98" height="2.791" transform="translate(116.423 121.312) rotate(180)"/><rect class="f" width="1.98" height="2.791" transform="translate(112.779 121.312) rotate(180)"/><rect class="f" width="1.98" height="2.791" transform="translate(109.077 121.312) rotate(180)"/><rect class="f" width="1.98" height="2.791" transform="translate(105.457 121.312) rotate(180)"/><rect class="f" width="1.98" height="2.791" transform="translate(102.025 121.312) rotate(180)"/><rect class="f" width="1.98" height="2.791" transform="translate(98.529 121.312) rotate(180)"/><rect class="f" width="1.98" height="2.791" transform="translate(94.991 121.312) rotate(180)"/><rect class="f" width="1.98" height="2.791" transform="translate(91.289 121.312) rotate(180)"/><rect class="f" width="1.98" height="2.791" transform="translate(87.67 121.312) rotate(180)"/><path class="f" d="M84.243,119.764v1.545h-.528Q83.962,120.539,84.243,119.764Z"/><rect class="f" width="1.98" height="2.791" transform="translate(148.461 126.235) rotate(180)"/><rect class="f" width="1.98" height="2.791" transform="translate(144.76 126.235) rotate(180)"/><rect class="f" width="1.98" height="2.791" transform="translate(141.14 126.235) rotate(180)"/><rect class="f" width="1.98" height="2.791" transform="translate(137.708 126.235) rotate(180)"/><rect class="f" width="1.98" height="2.791" transform="translate(134.212 126.235) rotate(180)"/><rect class="f" width="1.98" height="2.791" transform="translate(130.674 126.235) rotate(180)"/><rect class="f" width="1.98" height="2.791" transform="translate(126.972 126.235) rotate(180)"/><rect class="f" width="1.98" height="2.791" transform="translate(123.352 126.235) rotate(180)"/><rect class="f" width="1.98" height="2.791" transform="translate(119.921 126.235) rotate(180)"/><rect class="f" width="1.98" height="2.791" transform="translate(116.423 126.235) rotate(180)"/><rect class="f" width="1.98" height="2.791" transform="translate(112.779 126.235) rotate(180)"/><rect class="f" width="1.98" height="2.791" transform="translate(109.077 126.235) rotate(180)"/><rect class="f" width="1.98" height="2.791" transform="translate(105.457 126.235) rotate(180)"/><rect class="f" width="1.98" height="2.791" transform="translate(102.025 126.235) rotate(180)"/><rect class="f" width="1.98" height="2.791" transform="translate(98.529 126.235) rotate(180)"/><rect class="f" width="1.98" height="2.791" transform="translate(94.991 126.235) rotate(180)"/><rect class="f" width="1.98" height="2.791" transform="translate(91.289 126.235) rotate(180)"/><rect class="f" width="1.98" height="2.791" transform="translate(87.67 126.235) rotate(180)"/><path class="f" d="M84.243,123.446v2.79H82.364q.313-1.392.7-2.79Z"/><rect class="f" width="1.98" height="2.791" transform="translate(148.461 131.084) rotate(180)"/><rect class="f" width="1.98" height="2.791" transform="translate(144.76 131.084) rotate(180)"/><rect class="f" width="1.98" height="2.791" transform="translate(141.14 131.084) rotate(180)"/><rect class="f" width="1.98" height="2.791" transform="translate(137.708 131.084) rotate(180)"/><rect class="f" width="1.98" height="2.791" transform="translate(134.212 131.084) rotate(180)"/><rect class="f" width="1.98" height="2.791" transform="translate(130.674 131.084) rotate(180)"/><rect class="f" width="1.98" height="2.791" transform="translate(126.972 131.084) rotate(180)"/><rect class="f" width="1.98" height="2.791" transform="translate(123.352 131.084) rotate(180)"/><rect class="f" width="1.98" height="2.791" transform="translate(119.921 131.084) rotate(180)"/><rect class="f" width="1.98" height="2.791" transform="translate(116.423 131.084) rotate(180)"/><rect class="f" width="1.98" height="2.791" transform="translate(112.779 131.084) rotate(180)"/><rect class="f" width="1.98" height="2.791" transform="translate(109.077 131.084) rotate(180)"/><rect class="f" width="1.98" height="2.791" transform="translate(105.457 131.084) rotate(180)"/><rect class="f" width="1.98" height="2.791" transform="translate(102.025 131.084) rotate(180)"/><rect class="f" width="1.98" height="2.791" transform="translate(98.529 131.084) rotate(180)"/><rect class="f" width="1.98" height="2.791" transform="translate(94.991 131.084) rotate(180)"/><rect class="f" width="1.98" height="2.791" transform="translate(91.289 131.084) rotate(180)"/><rect class="f" width="1.98" height="2.791" transform="translate(87.67 131.084) rotate(180)"/><rect class="f" width="1.98" height="2.791" transform="translate(84.238 131.084) rotate(180)"/><rect class="f" width="1.98" height="2.791" transform="translate(148.461 136.236) rotate(180)"/><rect class="f" width="1.98" height="2.791" transform="translate(144.76 136.236) rotate(180)"/><rect class="f" width="1.98" height="2.791" transform="translate(141.14 136.236) rotate(180)"/><rect class="f" width="1.98" height="2.791" transform="translate(137.708 136.236) rotate(180)"/><rect class="f" width="1.98" height="2.791" transform="translate(134.212 136.236) rotate(180)"/><rect class="f" width="1.98" height="2.791" transform="translate(130.674 136.236) rotate(180)"/><rect class="f" width="1.98" height="2.791" transform="translate(126.972 136.236) rotate(180)"/><rect class="f" width="1.98" height="2.791" transform="translate(123.352 136.236) rotate(180)"/><rect class="f" width="1.98" height="2.791" transform="translate(119.921 136.236) rotate(180)"/><rect class="f" width="1.98" height="2.791" transform="translate(116.423 136.236) rotate(180)"/><rect class="f" width="1.98" height="2.791" transform="translate(112.779 136.236) rotate(180)"/><rect class="f" width="1.98" height="2.791" transform="translate(109.077 136.236) rotate(180)"/><rect class="f" width="1.98" height="2.791" transform="translate(105.457 136.236) rotate(180)"/><rect class="f" width="1.98" height="2.791" transform="translate(102.025 136.236) rotate(180)"/><rect class="f" width="1.98" height="2.791" transform="translate(98.529 136.236) rotate(180)"/><rect class="f" width="1.98" height="2.791" transform="translate(94.991 136.236) rotate(180)"/><rect class="f" width="1.98" height="2.791" transform="translate(91.289 136.236) rotate(180)"/><rect class="f" width="1.98" height="2.791" transform="translate(87.67 136.236) rotate(180)"/><rect class="f" width="1.98" height="2.791" transform="translate(84.238 136.236) rotate(180)"/><rect class="f" width="1.98" height="2.791" transform="translate(148.461 141.161) rotate(180)"/><rect class="f" width="1.98" height="2.791" transform="translate(144.76 141.161) rotate(180)"/><rect class="f" width="1.98" height="2.791" transform="translate(141.14 141.161) rotate(180)"/><rect class="f" width="1.98" height="2.791" transform="translate(137.708 141.161) rotate(180)"/><rect class="f" width="1.98" height="2.791" transform="translate(134.212 141.161) rotate(180)"/><rect class="f" width="1.98" height="2.791" transform="translate(130.674 141.161) rotate(180)"/><rect class="f" width="1.98" height="2.791" transform="translate(126.972 141.161) rotate(180)"/><rect class="f" width="1.98" height="2.791" transform="translate(123.352 141.161) rotate(180)"/><rect class="f" width="1.98" height="2.791" transform="translate(119.921 141.161) rotate(180)"/><rect class="f" width="1.98" height="2.791" transform="translate(116.423 141.161) rotate(180)"/><rect class="f" width="1.98" height="2.791" transform="translate(112.779 141.161) rotate(180)"/><rect class="f" width="1.98" height="2.791" transform="translate(109.077 141.161) rotate(180)"/><rect class="f" width="1.98" height="2.791" transform="translate(105.457 141.161) rotate(180)"/><rect class="f" width="1.98" height="2.791" transform="translate(102.025 141.161) rotate(180)"/><rect class="f" width="1.98" height="2.791" transform="translate(98.529 141.161) rotate(180)"/><rect class="f" width="1.98" height="2.791" transform="translate(94.991 141.161) rotate(180)"/><rect class="f" width="1.98" height="2.791" transform="translate(91.289 141.161) rotate(180)"/><rect class="f" width="1.98" height="2.791" transform="translate(87.67 141.161) rotate(180)"/><rect class="f" width="1.98" height="2.791" transform="translate(84.238 141.161) rotate(180)"/><rect class="f" width="1.98" height="2.791" transform="translate(148.461 146.008) rotate(180)"/><rect class="f" width="1.98" height="2.791" transform="translate(144.76 146.008) rotate(180)"/><rect class="f" width="1.98" height="2.791" transform="translate(141.14 146.008) rotate(180)"/><rect class="f" width="1.98" height="2.791" transform="translate(137.708 146.008) rotate(180)"/><rect class="f" width="1.98" height="2.791" transform="translate(134.212 146.008) rotate(180)"/><rect class="f" width="1.98" height="2.791" transform="translate(130.674 146.008) rotate(180)"/><rect class="f" width="1.98" height="2.791" transform="translate(126.972 146.008) rotate(180)"/><rect class="f" width="1.98" height="2.791" transform="translate(123.352 146.008) rotate(180)"/><rect class="f" width="1.98" height="2.791" transform="translate(119.921 146.008) rotate(180)"/><rect class="f" width="1.98" height="2.791" transform="translate(116.423 146.008) rotate(180)"/><rect class="f" width="1.98" height="2.791" transform="translate(112.779 146.008) rotate(180)"/><rect class="f" width="1.98" height="2.791" transform="translate(109.077 146.008) rotate(180)"/><rect class="f" width="1.98" height="2.791" transform="translate(105.457 146.008) rotate(180)"/><rect class="f" width="1.98" height="2.791" transform="translate(102.025 146.008) rotate(180)"/><rect class="f" width="1.98" height="2.791" transform="translate(98.529 146.008) rotate(180)"/><rect class="f" width="1.98" height="2.791" transform="translate(94.991 146.008) rotate(180)"/><rect class="f" width="1.98" height="2.791" transform="translate(91.289 146.008) rotate(180)"/><rect class="f" width="1.98" height="2.791" transform="translate(87.67 146.008) rotate(180)"/><rect class="f" width="1.98" height="2.791" transform="translate(84.238 146.008) rotate(180)"/></g><rect class="f" width="45.886" height="24.754" transform="translate(162.343 176.716) rotate(180)"/><rect class="f" width="45.886" height="12.378" transform="translate(197.136 176.715) rotate(180)"/><path class="f" d="M112.778,155.818v20.9H91.1c-.018-.031-.039-.067-.064-.11l-.12-.212-.057-.087c-.063-.111-.132-.241-.211-.379-.1-.173-.2-.372-.32-.592h0c-.439-.823-1.022-1.964-1.685-3.382q-.327-.7-.675-1.486c-.093-.209-.185-.421-.279-.639h0c-.091-.209-.183-.425-.274-.644l-.01-.022c-.063-.15-.128-.3-.191-.459s-.132-.319-.2-.481c-.342-.842-.691-1.731-1.039-2.67-.01-.024-.018-.051-.028-.075h0q-.342-.923-.679-1.9c-.12-.361-.241-.722-.368-1.1l-.022-.07c-.054-.165-.107-.33-.161-.5-.045-.141-.089-.28-.132-.421q-.137-.437-.273-.882c-.12-.38-.231-.768-.344-1.159q-.229-.8-.448-1.622l-.13-.5c-.128-.5-.254-1-.375-1.509Z"/><rect class="g" width="8.549" height="4.585" transform="translate(159.278 159.444) rotate(180)"/><rect class="g" width="8.549" height="4.585" transform="translate(148.304 159.444) rotate(180)"/><rect class="g" width="8.549" height="4.585" transform="translate(137.538 159.444) rotate(180)"/><rect class="g" width="8.549" height="4.585" transform="translate(126.98 159.444) rotate(180)"/><rect class="j" width="4.405" height="24.967" transform="translate(116.934 176.929) rotate(180)"/><rect class="h" width="0.238" height="1.938" transform="translate(183.527 109.727) rotate(180)"/><rect class="h" width="0.238" height="1.938" transform="translate(174.957 109.727) rotate(180)"/><path class="g" d="M81.449,147.064q.161,1.361.368,2.685.223,1.431.493,2.814.241,1.254.522,2.464c.023.1.046.2.071.3.037.165.076.329.12.492.12.509.248,1.012.375,1.509l.13.5q.219.826.448,1.622c.113.391.227.779.344,1.159q.136.446.273.882c.043.141.088.28.132.421.054.166.107.331.161.5l.022.07c.12.371.241.735.368,1.1q.337.982.679,1.9h0c.01.024.018.051.028.075.348.94.7,1.832,1.039,2.67.067.162.134.324.2.481l.191.459.01.022v-22.12Z"/><path class="g" d="M87.42,155.325V169.18l-.01-.022c-.063-.15-.128-.3-.191-.459s-.132-.319-.2-.481c-.342-.842-.691-1.731-1.039-2.67-.01-.024-.018-.051-.028-.075h0q-.342-.923-.679-1.9c-.12-.361-.241-.722-.368-1.1l-.022-.07c-.054-.165-.107-.33-.161-.5-.045-.141-.089-.28-.132-.421q-.137-.437-.273-.882c-.12-.38-.231-.768-.344-1.159q-.229-.8-.448-1.622l-.13-.5c-.128-.5-.254-1-.375-1.509-.04-.164-.078-.327-.12-.492Z"/><path class="f" d="M87.42,152.557v6.887H83.973q-.229-.8-.448-1.622l-.13-.5c-.128-.5-.254-1-.375-1.509-.04-.164-.078-.327-.12-.492-.025-.1-.048-.2-.071-.3q-.276-1.2-.522-2.463Z"/><path class="f" d="M85.274,161.486v2.082c-.12-.361-.241-.722-.368-1.1l-.022-.07c-.054-.165-.107-.33-.161-.5-.045-.141-.089-.28-.132-.421Z"/><rect class="j" width="1.36" height="2.353" transform="translate(85.015 156.844) rotate(180)"/><rect class="g" width="31.506" height="21.188" transform="translate(219.956 176.514) rotate(180)"/><rect class="f" width="31.506" height="6.886" transform="translate(219.956 159.445) rotate(180)"/><rect class="f" width="1.619" height="2.281" transform="translate(217.812 163.766) rotate(180)"/><rect class="f" width="1.619" height="2.281" transform="translate(214.785 163.766) rotate(180)"/><rect class="f" width="1.619" height="2.281" transform="translate(211.827 163.766) rotate(180)"/><rect class="f" width="1.617" height="2.281" transform="translate(209.023 163.766) rotate(180)"/><rect class="f" width="1.619" height="2.281" transform="translate(206.165 163.766) rotate(180)"/><rect class="f" width="1.619" height="2.281" transform="translate(203.273 163.766) rotate(180)"/><rect class="f" width="1.619" height="2.281" transform="translate(200.247 163.766) rotate(180)"/><rect class="f" width="1.619" height="2.281" transform="translate(197.289 163.766) rotate(180)"/><rect class="f" width="1.619" height="2.281" transform="translate(194.484 163.766) rotate(180)"/><rect class="f" width="1.617" height="2.281" transform="translate(191.626 163.766) rotate(180)"/><rect class="f" width="1.619" height="2.281" transform="translate(217.812 167.79) rotate(180)"/><rect class="f" width="1.619" height="2.281" transform="translate(214.785 167.79) rotate(180)"/><rect class="f" width="1.619" height="2.281" transform="translate(211.827 167.79) rotate(180)"/><rect class="f" width="1.617" height="2.281" transform="translate(209.023 167.79) rotate(180)"/><rect class="f" width="1.619" height="2.281" transform="translate(206.165 167.79) rotate(180)"/><rect class="f" width="1.619" height="2.281" transform="translate(203.273 167.79) rotate(180)"/><rect class="f" width="1.619" height="2.281" transform="translate(200.247 167.79) rotate(180)"/><rect class="f" width="1.619" height="2.281" transform="translate(197.289 167.79) rotate(180)"/><rect class="f" width="1.619" height="2.281" transform="translate(194.484 167.79) rotate(180)"/><rect class="f" width="1.617" height="2.281" transform="translate(191.626 167.79) rotate(180)"/><rect class="f" width="1.619" height="2.281" transform="translate(217.812 171.753) rotate(180)"/><rect class="f" width="1.619" height="2.281" transform="translate(214.785 171.753) rotate(180)"/><rect class="f" width="1.619" height="2.281" transform="translate(211.827 171.753) rotate(180)"/><rect class="f" width="1.617" height="2.281" transform="translate(209.023 171.753) rotate(180)"/><rect class="f" width="1.619" height="2.281" transform="translate(206.165 171.753) rotate(180)"/><rect class="f" width="1.619" height="2.281" transform="translate(203.273 171.753) rotate(180)"/><rect class="f" width="1.619" height="2.281" transform="translate(200.247 171.753) rotate(180)"/><rect class="f" width="1.619" height="2.281" transform="translate(197.289 171.753) rotate(180)"/><rect class="f" width="1.619" height="2.281" transform="translate(194.484 171.753) rotate(180)"/><rect class="f" width="1.617" height="2.281" transform="translate(191.626 171.753) rotate(180)"/><rect class="j" width="1.36" height="2.353" transform="translate(217.553 156.844) rotate(180)"/><rect class="j" width="1.36" height="2.353" transform="translate(204.055 156.844) rotate(180)"/><rect class="j" width="1.36" height="2.353" transform="translate(193.315 156.844) rotate(180)"/><rect class="g" width="31.506" height="21.188" transform="translate(253.442 176.514) rotate(180)"/><rect class="f" width="31.506" height="6.886" transform="translate(253.442 159.445) rotate(180)"/><rect class="f" width="1.619" height="2.281" transform="translate(251.296 163.766) rotate(180)"/><rect class="f" width="1.619" height="2.281" transform="translate(248.27 163.766) rotate(180)"/><rect class="f" width="1.617" height="2.281" transform="translate(245.312 163.766) rotate(180)"/><rect class="f" width="1.617" height="2.281" transform="translate(242.507 163.766) rotate(180)"/><rect class="f" width="1.619" height="2.281" transform="translate(239.649 163.766) rotate(180)"/><rect class="f" width="1.619" height="2.281" transform="translate(236.757 163.766) rotate(180)"/><rect class="f" width="1.617" height="2.281" transform="translate(233.731 163.766) rotate(180)"/><rect class="f" width="1.617" height="2.281" transform="translate(230.773 163.766) rotate(180)"/><rect class="f" width="1.619" height="2.281" transform="translate(227.969 163.766) rotate(180)"/><rect class="f" width="1.619" height="2.281" transform="translate(225.11 163.766) rotate(180)"/><rect class="f" width="1.619" height="2.281" transform="translate(251.296 167.79) rotate(180)"/><rect class="f" width="1.619" height="2.281" transform="translate(248.27 167.79) rotate(180)"/><rect class="f" width="1.617" height="2.281" transform="translate(245.312 167.79) rotate(180)"/><rect class="f" width="1.617" height="2.281" transform="translate(242.507 167.79) rotate(180)"/><rect class="f" width="1.619" height="2.281" transform="translate(239.649 167.79) rotate(180)"/><rect class="f" width="1.619" height="2.281" transform="translate(236.757 167.79) rotate(180)"/><rect class="f" width="1.617" height="2.281" transform="translate(233.731 167.79) rotate(180)"/><rect class="f" width="1.617" height="2.281" transform="translate(230.773 167.79) rotate(180)"/><rect class="f" width="1.619" height="2.281" transform="translate(227.969 167.79) rotate(180)"/><rect class="f" width="1.619" height="2.281" transform="translate(225.11 167.79) rotate(180)"/><rect class="f" width="1.619" height="2.281" transform="translate(251.296 171.753) rotate(180)"/><rect class="f" width="1.619" height="2.281" transform="translate(248.27 171.753) rotate(180)"/><rect class="f" width="1.617" height="2.281" transform="translate(245.312 171.753) rotate(180)"/><rect class="f" width="1.617" height="2.281" transform="translate(242.507 171.753) rotate(180)"/><rect class="f" width="1.619" height="2.281" transform="translate(239.649 171.753) rotate(180)"/><rect class="f" width="1.619" height="2.281" transform="translate(236.757 171.753) rotate(180)"/><rect class="f" width="1.617" height="2.281" transform="translate(233.731 171.753) rotate(180)"/><rect class="f" width="1.617" height="2.281" transform="translate(230.773 171.753) rotate(180)"/><rect class="f" width="1.619" height="2.281" transform="translate(227.969 171.753) rotate(180)"/><rect class="f" width="1.619" height="2.281" transform="translate(225.11 171.753) rotate(180)"/><rect class="j" width="1.36" height="2.353" transform="translate(251.038 156.844) rotate(180)"/><rect class="j" width="1.36" height="2.353" transform="translate(237.538 156.844) rotate(180)"/><rect class="j" width="1.36" height="2.353" transform="translate(226.8 156.844) rotate(180)"/><rect class="g" width="31.506" height="21.188" transform="translate(319.384 176.514) rotate(180)"/><rect class="f" width="31.506" height="6.886" transform="translate(319.384 159.445) rotate(180)"/><rect class="f" width="1.617" height="2.281" transform="translate(317.24 163.766) rotate(180)"/><rect class="f" width="1.619" height="2.281" transform="translate(314.215 163.766) rotate(180)"/><rect class="f" width="1.617" height="2.281" transform="translate(311.256 163.766) rotate(180)"/><rect class="f" width="1.619" height="2.281" transform="translate(308.452 163.766) rotate(180)"/><rect class="f" width="1.619" height="2.281" transform="translate(305.592 163.766) rotate(180)"/><rect class="f" width="1.619" height="2.281" transform="translate(302.702 163.766) rotate(180)"/><rect class="f" width="1.619" height="2.281" transform="translate(299.676 163.766) rotate(180)"/><rect class="f" width="1.619" height="2.281" transform="translate(296.718 163.766) rotate(180)"/><rect class="f" width="1.619" height="2.281" transform="translate(293.913 163.766) rotate(180)"/><rect class="f" width="1.619" height="2.281" transform="translate(291.055 163.766) rotate(180)"/><rect class="f" width="1.617" height="2.281" transform="translate(317.24 167.79) rotate(180)"/><rect class="f" width="1.619" height="2.281" transform="translate(314.215 167.79) rotate(180)"/><rect class="f" width="1.617" height="2.281" transform="translate(311.256 167.79) rotate(180)"/><rect class="f" width="1.619" height="2.281" transform="translate(308.452 167.79) rotate(180)"/><rect class="f" width="1.619" height="2.281" transform="translate(305.592 167.79) rotate(180)"/><rect class="f" width="1.619" height="2.281" transform="translate(302.702 167.79) rotate(180)"/><rect class="f" width="1.619" height="2.281" transform="translate(299.676 167.79) rotate(180)"/><rect class="f" width="1.619" height="2.281" transform="translate(296.718 167.79) rotate(180)"/><rect class="f" width="1.619" height="2.281" transform="translate(293.913 167.79) rotate(180)"/><rect class="f" width="1.619" height="2.281" transform="translate(291.055 167.79) rotate(180)"/><rect class="f" width="1.617" height="2.281" transform="translate(317.24 171.753) rotate(180)"/><rect class="f" width="1.619" height="2.281" transform="translate(314.215 171.753) rotate(180)"/><rect class="f" width="1.617" height="2.281" transform="translate(311.256 171.753) rotate(180)"/><rect class="f" width="1.619" height="2.281" transform="translate(308.452 171.753) rotate(180)"/><rect class="f" width="1.619" height="2.281" transform="translate(305.592 171.753) rotate(180)"/><rect class="f" width="1.619" height="2.281" transform="translate(302.702 171.753) rotate(180)"/><rect class="f" width="1.619" height="2.281" transform="translate(299.676 171.753) rotate(180)"/><rect class="f" width="1.619" height="2.281" transform="translate(296.718 171.753) rotate(180)"/><rect class="f" width="1.619" height="2.281" transform="translate(293.913 171.753) rotate(180)"/><rect class="f" width="1.619" height="2.281" transform="translate(291.055 171.753) rotate(180)"/><rect class="j" width="1.36" height="2.353" transform="translate(316.981 156.844) rotate(180)"/><rect class="j" width="1.36" height="2.353" transform="translate(303.483 156.844) rotate(180)"/><rect class="j" width="1.36" height="2.353" transform="translate(292.744 156.844) rotate(180)"/><path class="k" d="M284.526,171.9v-.378c0-.769,0-1.554-.007-2.2a5.938,5.938,0,0,0-.77-2.747,7.822,7.822,0,0,0-1.118-1.565l-1.234-1-4.144-3.334-.024-.052a1.3,1.3,0,0,0,.241-.33,1.337,1.337,0,0,0,.141-.6v-2.388a1.342,1.342,0,0,0-1.338-1.338h-.428a1.3,1.3,0,0,0-.681.193l-2.845-6.138a14.938,14.938,0,0,0-.656-2.232,5.754,5.754,0,0,0-5.481-3.442H244.76v.036H216.517v30.408h3.513c.31,1.572,1.261,2.725,2.407,2.725h1.583c1.138,0,2.09-1.153,2.4-2.725h7.324c.31,1.572,1.262,2.725,2.407,2.725h1.583c1.14,0,2.09-1.153,2.407-2.725H256.59a5.693,5.693,0,0,1-.079-.971c0-.024.007-.046.007-.07l.072,1.041h.753c.31,1.572,1.262,2.725,2.407,2.725h1.583c1.14,0,2.09-1.153,2.4-2.725h11.81c.31,1.572,1.262,2.725,2.4,2.725h1.583c1.146,0,2.1-1.165,2.407-2.751a2.868,2.868,0,0,0,2.592-2.864Z"/><path class="l" d="M242.472,123.66v6.3a3.524,3.524,0,0,1-3.526,3.526h-1.129a3.537,3.537,0,0,1-3.526-3.526v-6.3a3.475,3.475,0,0,1,.511-1.805v-.008a3.537,3.537,0,0,1,3.009-1.708h1.129A3.538,3.538,0,0,1,242.472,123.66Z"/><path class="m" d="M242.1,131.528a3.536,3.536,0,0,1-3.157,1.953h-1.129a3.537,3.537,0,0,1-3.526-3.526v-6.3a3.475,3.475,0,0,1,.511-1.805C234.868,122.237,236.367,130.875,242.1,131.528Z"/><path class="n" d="M186.56,169.734h17.435V152.14H185.807Z"/><path class="o" d="M241.536,132.543l-85.648,2.111V89.49H212.13a14.287,14.287,0,0,1,12.716,7.774l3.681,7.183Z"/><path class="p" d="M192.876,166.873c0,4.777,2.464,10.044,2.464,10.044h4.171c3.663,0,6.635-4.5,6.635-10.044S199,156.828,195.339,156.828,192.876,161.325,192.876,166.873Z"/><ellipse class="q" cx="6.635" cy="10.044" rx="6.635" ry="10.044" transform="translate(188.705 156.828)"/><ellipse class="n" cx="4.998" cy="7.566" rx="4.998" ry="7.566" transform="translate(190.426 159.306)"/><path class="p" d="M240.832,166.873c0,4.777,2.463,10.044,2.463,10.044h4.171c3.663,0,6.634-4.5,6.634-10.044s-7.14-10.044-10.8-10.044S240.832,161.325,240.832,166.873Z"/><path class="q" d="M236.66,166.873c0,5.547,2.97,10.044,6.635,10.044s6.635-4.5,6.635-10.044-2.97-10.044-6.635-10.044S236.66,161.325,236.66,166.873Z"/><path class="n" d="M238.381,166.873c0,4.178,2.237,7.565,5,7.565s5-3.387,5-7.565-2.237-7.566-5-7.566S238.381,162.694,238.381,166.873Z"/><path class="p" d="M130.706,166.873c0,4.777,2.464,10.044,2.464,10.044h4.171c3.663,0,6.635-4.5,6.635-10.044s-7.141-10.044-10.806-10.044S130.706,161.325,130.706,166.873Z"/><path class="q" d="M126.535,166.873c0,5.547,2.97,10.044,6.635,10.044s6.635-4.5,6.635-10.044-2.97-10.044-6.635-10.044S126.535,161.325,126.535,166.873Z"/><path class="n" d="M128.256,166.873c0,4.178,2.237,7.565,5,7.565s5-3.387,5-7.565-2.237-7.566-5-7.566S128.256,162.694,128.256,166.873Z"/><path class="o" d="M260.706,162.132a7.582,7.582,0,0,1-7.582,7.6h-49.13a14.927,14.927,0,0,0,.219-2.56c0-6.5-3.9-11.765-8.694-11.765s-8.7,5.271-8.7,11.765a14.935,14.935,0,0,0,.209,2.56H158.317s-1.157-12.817-1.015-19.245c.12-5.594.12-16.554-.218-19.227,0-.4,27.68-.445,34.669-.474.948-.01,1.518-.01,1.574-.01l.1.066.1.076c1.29.9,8.515,5.963,13,8.931,3.953,2.607,33.134,3.669,44.578,3.992,2.844.076,4.6.1,4.6.1a20.626,20.626,0,0,1,2.949,4.134,15.673,15.673,0,0,1,2.029,7.242c.01,1.716.019,3.784.019,5.812C260.706,161.468,260.706,161.8,260.706,162.132Z"/><path class="r" d="M234.625,130.779h-38.49a2.273,2.273,0,0,1-2.066-1.324l-9.529-21.2a1.052,1.052,0,0,1,.963-1.479h40.6a2.258,2.258,0,0,1,2.066,1.356L235,123.726l1.707,3.9a2.26,2.26,0,0,1-2.081,3.157Z"/><path class="l" d="M216.7,161.136c-.01.664-.038,1.29-.077,1.85-.274,3.687-3.981,6.749-3.981,6.749h-8.647a15.31,15.31,0,0,0-1.013-8.6c-1.527-3.431-4.3-5.726-7.461-5.726s-5.944,2.295-7.471,5.726a15.509,15.509,0,0,0-1.023,8.6H155.88V89.492h25v15.931s7.5,17.615,10.873,25.37c.835,1.934,1.423,3.249,1.574,3.536.75,1.432,18.172,10.249,21.061,12.847C215.987,148.612,216.783,156.1,216.7,161.136Z"/><path class="r" d="M181.16,110.589l8.2,20.194H175.291s-2.888-.481-3.249-6.378c-.395-6.3-.395-17.161-.395-17.161l6.175-.03C180.17,107.567,180.538,108.86,181.16,110.589Z"/><path class="o" d="M255.7,143.948h-45.62l-16.657-13.1-.1-.066h46.018l13.1,10.542Z"/><path class="f" d="M258.649,148.082a1.523,1.523,0,0,1-.976.787l-6.4,1.184c-.54.1-.957-.834-.815-1.805l.626-4.3.019-.1.12-.882a1.858,1.858,0,0,1,.853-1.5l.369-.142,3.249,2.626A20.626,20.626,0,0,1,258.649,148.082Z"/><path class="l" d="M215.987,151.646l-4.124-.408A3.23,3.23,0,0,1,209,148.591l-.948-5.215a.7.7,0,0,1-.019-.241,49.424,49.424,0,0,1,6.352,4.039C215.068,147.786,215.607,149.495,215.987,151.646Z"/><path class="f" d="M223.818,152.424,216,151.646h-.01l-4.124-.408A3.23,3.23,0,0,1,209,148.591l-.948-5.215a.705.705,0,0,1-.019-.241v-.01a1.735,1.735,0,0,1,2.086-1.763l12.183,2.474a2.1,2.1,0,0,1,1.6,1.5l1.432,5.3a1.427,1.427,0,0,1-1.515,1.794Z"/><path class="o" d="M228.526,104.445H181a27.5,27.5,0,0,0-1.377-6.514c-1.061-3.066-2.9-6.488-6.108-8.44h38.836c6.331,0,11.941,3.381,14.17,8.44a6.608,6.608,0,0,1,.274.629A39.586,39.586,0,0,1,228.526,104.445Z"/><path class="r" d="M216,151.646l-4.134-.408A3.23,3.23,0,0,1,209,148.591l-.948-5.215a.76.76,0,0,1-.019-.255,50.56,50.56,0,0,1,6.352,4.048C215.068,147.786,215.607,149.495,216,151.646Z"/><path class="s" d="M260.706,162.132a7.774,7.774,0,0,1-7.954,7.6H203.993a15.31,15.31,0,0,0-1.013-8.6H260.7C260.706,161.468,260.706,161.8,260.706,162.132Z"/><path class="s" d="M186.815,167.175a14.935,14.935,0,0,0,.209,2.56H155.88v-8.6h32.167a15.03,15.03,0,0,0-1.232,6.039Z"/><path class="s" d="M228.588,144.318h18.654c.6,0,1.052.8.963,1.694l-.662,6.483c-.1.954-.64,1.657-1.278,1.657H230.893c-.986,0-1.855-.975-2.141-2.407l-1.107-5.512C227.455,145.284,227.926,144.318,228.588,144.318Z"/><path class="f" d="M234.995,123.726a68.78,68.78,0,0,1-41.382-16.951h32.494a2.258,2.258,0,0,1,2.066,1.356Z"/><rect class="t" width="83.229" height="80.251" transform="translate(81.453 89.49)"/><path class="p" d="M185.187,120.414s.711,8.162-3.318,10.4H189.4Z"/><path class="p" d="M186.3,125.875s-1.7-1.2-1.846-2.212v5.709h2.224Z"/><path class="o" d="M184.446,123.66v6.3a3.527,3.527,0,0,1-3.527,3.526h-1.128a3.538,3.538,0,0,1-3.527-3.526v-6.3a3.477,3.477,0,0,1,.513-1.805v-.008a3.536,3.536,0,0,1,3.009-1.708h1.128A3.539,3.539,0,0,1,184.446,123.66Z"/><path class="s" d="M184.075,131.528a3.533,3.533,0,0,1-3.157,1.953h-1.128a3.538,3.538,0,0,1-3.527-3.526v-6.3a3.477,3.477,0,0,1,.513-1.805C176.842,122.237,178.34,130.875,184.075,131.528Z"/><path class="n" d="M108.637,169.74H88.164c-.433-1.849-1.735-15.007,9.738-15.007C108.329,154.732,109.1,166.739,108.637,169.74Z"/><path class="p" d="M94.572,166.873c0,4.777,2.463,10.044,2.463,10.044h4.176c3.665,0,6.635-4.5,6.635-10.044S100.7,156.828,97.04,156.828,94.572,161.325,94.572,166.873Z"/><path class="q" d="M90.4,166.873c0,5.547,2.971,10.044,6.635,10.044s6.635-4.5,6.635-10.044-2.97-10.044-6.635-10.044S90.4,161.325,90.4,166.873Z"/><path class="n" d="M92.122,166.873c0,4.178,2.237,7.565,5,7.565s5-3.387,5-7.565-2.237-7.566-5-7.566S92.122,162.694,92.122,166.873Z"/><path class="s" d="M228.526,104.445H181a27.5,27.5,0,0,0-1.377-6.514h46.9a6.608,6.608,0,0,1,.274.629A39.586,39.586,0,0,1,228.526,104.445Z"/><path class="u" d="M188.048,39.852A15.546,15.546,0,0,0,172.5,55.4c0,8.586,15.546,27.68,15.546,27.68s15.546-19.089,15.546-27.68a15.545,15.545,0,0,0-15.548-15.546Zm0,22.655a7.267,7.267,0,1,1,7.267-7.267,7.267,7.267,0,0,1-7.267,7.267Z"/><path class="v" d="M157.085,138.332a.3.3,0,0,1-.23-.108l-.373-.451a.3.3,0,0,1,.461-.38l.372.45a.3.3,0,0,1-.23.49Zm-.879-1.066a.3.3,0,0,1-.231-.108l-.5-.617a.3.3,0,0,1,.462-.378l.5.616a.3.3,0,0,1-.042.42.293.293,0,0,1-.185.067Zm-1.006-1.234a.3.3,0,0,1-.232-.111l-.5-.622a.3.3,0,1,1,.466-.373c.167.209.333.415.5.62a.3.3,0,0,1-.043.419.292.292,0,0,1-.188.067Zm-1-1.243a.3.3,0,0,1-.233-.113c-.165-.207-.329-.416-.495-.627a.3.3,0,0,1,.471-.368l.491.625a.3.3,0,0,1-.233.481Zm-.982-1.254a.3.3,0,0,1-.241-.12c-.162-.208-.324-.42-.481-.633a.3.3,0,1,1,.475-.361c.161.213.323.422.481.631a.3.3,0,0,1-.241.481Zm-.963-1.267a.3.3,0,0,1-.241-.12l-.481-.64a.3.3,0,0,1,.481-.361c.158.214.317.427.474.637a.3.3,0,0,1-.059.419.3.3,0,0,1-.178.066Zm-.947-1.279a.3.3,0,0,1-.241-.12c-.155-.214-.312-.431-.467-.649a.3.3,0,1,1,.481-.347l.465.644a.3.3,0,0,1-.241.474Zm-.927-1.3a.3.3,0,0,1-.241-.128c-.152-.217-.3-.436-.456-.656a.3.3,0,0,1,.492-.338q.226.329.452.651a.3.3,0,0,1-.072.416.3.3,0,0,1-.179.054Zm-.9-1.312a.3.3,0,0,1-.248-.131q-.223-.332-.443-.666a.3.3,0,1,1,.5-.329q.219.332.44.66a.3.3,0,0,1-.081.415.306.306,0,0,1-.171.051Zm-.876-1.324a.3.3,0,0,1-.252-.136q-.217-.336-.43-.675a.3.3,0,1,1,.505-.318c.141.224.283.448.426.669a.3.3,0,0,1-.089.413.306.306,0,0,1-.165.041Zm-.842-1.348a.3.3,0,0,1-.254-.142c-.14-.227-.278-.455-.415-.685a.3.3,0,1,1,.513-.306q.2.342.41.678a.3.3,0,0,1-.254.455Zm-.816-1.367a.3.3,0,0,1-.259-.149q-.2-.345-.4-.694a.3.3,0,1,1,.52-.292c.13.23.261.46.394.687a.3.3,0,0,1-.108.408.294.294,0,0,1-.154.035Zm-.782-1.388a.3.3,0,0,1-.262-.155c-.128-.241-.255-.471-.379-.706a.3.3,0,1,1,.527-.279q.185.35.377.7a.3.3,0,0,1-.12.406.308.308,0,0,1-.152.03Zm-.746-1.412a.3.3,0,0,1-.266-.162q-.183-.361-.361-.722a.3.3,0,1,1,.536-.264c.12.241.241.474.361.709a.3.3,0,0,1-.13.4.306.306,0,0,1-.149.031Zm-.7-1.432a.3.3,0,0,1-.271-.171c-.113-.241-.226-.481-.336-.728a.3.3,0,1,1,.544-.241q.162.361.332.722a.3.3,0,0,1-.142.4.306.306,0,0,1-.137.014Zm-.662-1.457a.3.3,0,0,1-.274-.181c-.106-.241-.211-.491-.312-.739a.3.3,0,1,1,.551-.227q.152.361.308.729a.3.3,0,0,1-.155.392.292.292,0,0,1-.118.025Zm-.6-1.474a.3.3,0,0,1-.278-.189q-.146-.374-.285-.75a.3.3,0,1,1,.56-.207q.137.371.282.739a.3.3,0,0,1-.17.386.284.284,0,0,1-.119.02Zm-.552-1.492a.3.3,0,0,1-.282-.2c-.089-.253-.174-.505-.256-.761a.3.3,0,1,1,.567-.184q.12.375.253.749a.3.3,0,0,1-.184.38.308.308,0,0,1-.108.017Zm-.493-1.514a.3.3,0,0,1-.286-.212c-.077-.255-.153-.515-.224-.77a.3.3,0,1,1,.574-.161c.071.252.146.507.221.758a.3.3,0,0,1-.2.372.309.309,0,0,1-.1.013Zm-.44-1.528a.3.3,0,0,1-.289-.224c-.067-.26-.131-.523-.191-.78a.3.3,0,0,1,.582-.136c.058.254.12.511.187.767a.3.3,0,0,1-.214.361.271.271,0,0,1-.075.012Zm-.361-1.55a.3.3,0,0,1-.292-.241c-.054-.262-.106-.528-.154-.788a.3.3,0,0,1,.587-.107c.047.255.1.516.152.774a.3.3,0,0,1-.232.353.265.265,0,0,1-.059,0Zm-.286-1.565a.3.3,0,0,1-.294-.253c-.042-.265-.081-.532-.12-.8a.3.3,0,0,1,.592-.077c.034.258.072.521.113.78a.3.3,0,0,1-.249.342Zm-.206-1.58a.3.3,0,0,1-.3-.267c-.028-.267-.053-.537-.073-.8a.3.3,0,0,1,.6-.046c.02.259.043.524.071.786a.3.3,0,0,1-.266.327Zm-.12-1.589a.3.3,0,0,1-.3-.284c-.012-.268-.022-.539-.028-.806a.3.3,0,0,1,.6-.012c0,.261.014.526.028.788a.3.3,0,0,1-.284.313Zm-.033-1.6h0a.3.3,0,0,1-.3-.3c0-.268.008-.539.018-.8a.3.3,0,1,1,.6.022c-.01.26-.016.525-.018.787a.3.3,0,0,1-.306.289Zm.06-1.592H141a.3.3,0,0,1-.278-.318c.018-.267.04-.538.065-.8a.3.3,0,1,1,.595.058c-.025.26-.047.525-.064.786a.3.3,0,0,1-.3.271Zm.153-1.586a.214.214,0,0,1-.039,0,.3.3,0,0,1-.258-.333c.034-.265.072-.533.113-.8a.3.3,0,1,1,.59.093c-.041.258-.078.52-.111.78a.3.3,0,0,1-.3.25Zm.249-1.572a.3.3,0,0,1-.294-.354c.049-.262.1-.527.161-.788a.3.3,0,1,1,.582.129c-.055.255-.11.514-.158.77a.3.3,0,0,1-.292.236Zm.343-1.554a.306.306,0,0,1-.073-.008.3.3,0,0,1-.217-.361c.065-.258.136-.519.209-.777a.3.3,0,0,1,.574.164c-.072.253-.141.508-.2.761a.3.3,0,0,1-.286.215Zm.436-1.53a.3.3,0,0,1-.09-.014.3.3,0,0,1-.195-.375c.081-.253.166-.509.255-.763a.3.3,0,1,1,.563.2c-.087.248-.171.5-.249.746a.3.3,0,0,1-.284.2Zm.526-1.5a.3.3,0,0,1-.279-.4c.1-.249.195-.5.3-.747a.3.3,0,1,1,.551.23c-.1.241-.2.481-.292.731a.3.3,0,0,1-.274.184Zm.611-1.468a.3.3,0,0,1-.272-.421c.108-.241.223-.487.339-.728a.3.3,0,1,1,.538.259c-.114.241-.226.481-.333.714a.3.3,0,0,1-.272.17Zm.692-1.433a.3.3,0,0,1-.265-.436c.12-.235.249-.474.378-.709a.3.3,0,1,1,.523.289c-.128.23-.251.463-.371.694a.3.3,0,0,1-.266.154Zm.768-1.394a.3.3,0,0,1-.15-.041.3.3,0,0,1-.107-.408c.134-.229.273-.46.414-.688a.3.3,0,1,1,.508.314c-.138.224-.276.451-.407.675a.3.3,0,0,1-.258.141Zm.842-1.353a.293.293,0,0,1-.164-.049.3.3,0,0,1-.087-.413c.146-.221.3-.446.448-.667a.3.3,0,1,1,.492.338c-.149.217-.3.437-.439.655a.3.3,0,0,1-.255.134Zm.9-1.312a.294.294,0,0,1-.174-.057A.3.3,0,0,1,146.3,88c.155-.215.315-.433.481-.646a.3.3,0,1,1,.481.361c-.159.211-.317.424-.469.635a.3.3,0,0,1-.256.116Zm.963-1.27a.3.3,0,0,1-.233-.481c.162-.207.332-.416.5-.625a.3.3,0,0,1,.461.38c-.168.2-.336.41-.5.615a.3.3,0,0,1-.243.1Zm1-1.236a.3.3,0,0,1-.226-.492q.26-.3.528-.6a.3.3,0,0,1,.445.4c-.177.2-.35.4-.52.595A.3.3,0,0,1,148.508,85.964Zm1.06-1.187a.3.3,0,0,1-.218-.5c.179-.194.361-.388.55-.582a.3.3,0,0,1,.43.414c-.184.191-.361.384-.543.575a.3.3,0,0,1-.218.1Zm1.1-1.147a.3.3,0,0,1-.211-.509q.28-.282.569-.562a.3.3,0,0,1,.416.428q-.288.276-.563.555a.3.3,0,0,1-.209.088Zm1.143-1.108a.3.3,0,0,1-.218-.094.3.3,0,0,1,.013-.422q.289-.271.587-.543a.3.3,0,1,1,.4.442q-.294.267-.581.537a.3.3,0,0,1-.2.081Zm1.177-1.071a.3.3,0,0,1-.2-.522c.2-.175.4-.35.6-.525a.3.3,0,0,1,.388.454l-.6.519a.3.3,0,0,1-.189.075Zm1.2-1.035a.3.3,0,0,1-.23-.107.3.3,0,0,1,.038-.421c.2-.168.409-.338.619-.507a.3.3,0,0,1,.375.465q-.31.252-.613.5a.3.3,0,0,1-.183.069Zm1.232-1.007a.3.3,0,0,1-.193-.527c.2-.168.4-.342.595-.515a.3.3,0,0,1,.4.445c-.2.177-.4.354-.609.527a.3.3,0,0,1-.184.07Zm1.185-1.061a.3.3,0,0,1-.206-.514c.189-.181.377-.361.558-.552a.3.3,0,0,1,.427.418c-.187.19-.38.38-.574.566a.3.3,0,0,1-.2.082Zm1.113-1.137a.3.3,0,0,1-.22-.5c.176-.194.351-.391.52-.588a.3.3,0,1,1,.454.386c-.173.2-.353.407-.533.6a.3.3,0,0,1-.213.1ZM158.758,76a.3.3,0,0,1-.233-.481c.161-.2.323-.414.481-.625a.3.3,0,0,1,.481.354c-.159.215-.324.431-.49.641a.3.3,0,0,1-.232.111Zm.944-1.282a.3.3,0,0,1-.241-.467c.147-.215.291-.436.431-.656a.3.3,0,1,1,.5.318c-.142.226-.291.454-.442.675a.3.3,0,0,1-.246.13Zm.842-1.347a.3.3,0,0,1-.149-.04.3.3,0,0,1-.108-.408c.13-.225.259-.456.382-.687a.3.3,0,1,1,.527.28c-.12.241-.259.474-.392.705a.3.3,0,0,1-.247.149Zm.747-1.4a.3.3,0,0,1-.268-.43c.113-.235.224-.474.329-.711a.3.3,0,1,1,.546.241c-.107.241-.221.489-.338.73a.3.3,0,0,1-.256.17Zm.641-1.455a.3.3,0,0,1-.277-.408c.1-.241.189-.489.277-.734a.3.3,0,1,1,.562.2c-.09.252-.185.505-.284.753a.3.3,0,0,1-.266.188Zm.537-1.5a.3.3,0,0,1-.285-.389c.079-.248.155-.5.225-.752a.3.3,0,0,1,.575.161c-.072.258-.15.517-.231.773a.3.3,0,0,1-.272.207Zm.43-1.531a.287.287,0,0,1-.071-.01.3.3,0,0,1-.219-.361c.061-.253.12-.51.172-.767a.3.3,0,0,1,.585.12c-.054.262-.12.527-.177.786a.3.3,0,0,1-.278.231Zm.325-1.564a.242.242,0,0,1-.052,0,.3.3,0,0,1-.241-.345c.045-.256.085-.517.12-.776a.3.3,0,1,1,.592.083c-.037.265-.079.533-.12.8a.3.3,0,0,1-.288.249Zm.221-1.577h-.033a.3.3,0,0,1-.265-.329c.028-.259.053-.522.072-.783a.3.3,0,1,1,.6.046c-.02.268-.046.538-.075.8a.3.3,0,0,1-.29.271Zm.12-1.589h-.014a.3.3,0,0,1-.284-.312c.012-.26.02-.525.025-.788a.3.3,0,1,1,.6.011c0,.268-.013.539-.026.805a.3.3,0,0,1-.288.29Zm.026-1.592a.3.3,0,0,1-.3-.3c0-.261-.01-.526-.02-.787a.3.3,0,1,1,.6-.024c.011.267.018.538.02.805a.3.3,0,0,1-.295.3Zm-.064-1.593a.3.3,0,0,1-.3-.278c-.018-.259-.038-.524-.064-.786a.3.3,0,0,1,.595-.055c.025.267.047.537.065.8a.3.3,0,0,1-.278.318Zm-.149-1.585a.3.3,0,0,1-.3-.262c-.031-.259-.066-.522-.1-.781a.3.3,0,1,1,.591-.087c.039.264.075.532.107.8a.3.3,0,0,1-.261.332Zm-.231-1.574a.3.3,0,0,1-.294-.248c-.045-.256-.093-.516-.143-.776a.3.3,0,1,1,.585-.12c.053.264.1.53.147.791a.3.3,0,0,1-.241.344.241.241,0,0,1-.04.016Zm-.308-1.565a.3.3,0,0,1-.291-.233c-.057-.256-.12-.514-.181-.768a.3.3,0,0,1,.58-.144c.064.259.12.522.183.782a.3.3,0,0,1-.291.361Zm-.372-1.532a.3.3,0,0,1-.288-.22c-.069-.253-.141-.508-.215-.759a.3.3,0,1,1,.572-.17c.076.256.15.516.219.773a.3.3,0,0,1-.288.377Zm-.453-1.53a.3.3,0,0,1-.284-.208c-.079-.248-.164-.5-.249-.752a.3.3,0,1,1,.564-.194c.087.254.172.511.253.764a.3.3,0,0,1-.193.375.3.3,0,0,1-.087.01Zm-.51-1.515a.3.3,0,0,1-.28-.2c-.091-.247-.185-.5-.282-.74a.3.3,0,0,1,.556-.218c.1.248.194.5.285.752a.3.3,0,0,1-.177.383A.28.28,0,0,1,161.505,50.269Zm-.584-1.486a.3.3,0,0,1-.276-.184c-.1-.241-.206-.487-.312-.728a.3.3,0,0,1,.546-.241c.108.241.214.493.317.739a.3.3,0,0,1-.16.39.306.306,0,0,1-.119.024Zm-.643-1.461a.3.3,0,0,1-.271-.172c-.111-.241-.225-.481-.342-.715a.3.3,0,0,1,.537-.262c.12.241.233.481.347.722a.3.3,0,0,1-.146.4.291.291,0,0,1-.129.031ZM91.084,46.1a.3.3,0,0,1-.256-.451c0-.011.153-.256.45-.688a.3.3,0,1,1,.492.338c-.285.414-.427.652-.428.655a.3.3,0,0,1-.258.147Zm68.489-.211a.3.3,0,0,1-.266-.162q-.181-.353-.368-.7a.3.3,0,0,1,.525-.284c.128.241.253.472.374.71a.3.3,0,0,1-.129.4.291.291,0,0,1-.13.034ZM91.988,44.779a.294.294,0,0,1-.177-.058.3.3,0,0,1-.064-.418c.155-.211.319-.426.481-.641a.3.3,0,1,1,.471.361c-.164.212-.325.424-.481.629a.3.3,0,0,1-.23.126Zm66.828-.29a.3.3,0,0,1-.26-.152c-.13-.23-.262-.457-.4-.685a.3.3,0,0,1,.514-.3q.2.345.4.693a.3.3,0,0,1-.113.408.311.311,0,0,1-.147.039ZM92.968,43.52a.3.3,0,0,1-.231-.487c.167-.2.341-.41.516-.616a.3.3,0,0,1,.454.389c-.173.2-.344.406-.508.6a.3.3,0,0,1-.231.113Zm65.038-.4a.3.3,0,0,1-.254-.141q-.207-.336-.422-.668a.3.3,0,1,1,.5-.324q.217.336.428.678a.3.3,0,0,1-.1.41.294.294,0,0,1-.156.045Zm-64-.809a.3.3,0,0,1-.2-.076.3.3,0,0,1-.023-.421c.177-.2.361-.4.542-.593a.3.3,0,0,1,.437.407c-.179.193-.361.389-.533.584a.3.3,0,0,1-.223.1Zm63.136-.527a.3.3,0,0,1-.248-.131q-.22-.326-.446-.65a.3.3,0,1,1,.481-.343q.231.326.455.658a.3.3,0,0,1-.081.415.306.306,0,0,1-.161.051Zm-62.051-.639a.3.3,0,0,1-.214-.505q.272-.282.564-.57a.3.3,0,1,1,.42.424q-.286.285-.556.562A.3.3,0,0,1,95.091,41.143Zm61.136-.661a.3.3,0,0,1-.241-.12c-.155-.213-.313-.422-.472-.632a.3.3,0,0,1,.474-.361q.241.318.481.64a.3.3,0,0,1-.241.475Zm-60-.461a.3.3,0,0,1-.206-.514q.285-.272.586-.549a.3.3,0,1,1,.4.44c-.2.182-.39.361-.578.54a.3.3,0,0,1-.206.082Zm59.041-.8a.3.3,0,0,1-.233-.113c-.164-.2-.331-.409-.5-.611a.3.3,0,0,1,.459-.38c.17.2.339.413.505.62a.3.3,0,0,1-.233.481ZM97.4,38.944a.3.3,0,0,1-.224-.1.3.3,0,0,1,.025-.421q.3-.261.6-.526a.3.3,0,1,1,.386.455q-.3.26-.6.519a.3.3,0,0,1-.188.075ZM154.248,38a.3.3,0,0,1-.225-.1c-.172-.2-.348-.4-.523-.592a.3.3,0,1,1,.443-.4c.179.2.361.4.532.6a.3.3,0,0,1-.03.421.3.3,0,0,1-.2.072Zm-55.641-.09a.3.3,0,0,1-.189-.528c.2-.167.412-.336.625-.5a.3.3,0,1,1,.369.468q-.314.249-.616.5a.3.3,0,0,1-.189.067Zm1.249-.987a.3.3,0,0,1-.184-.539q.314-.241.641-.481a.3.3,0,1,1,.354.481l-.634.473a.3.3,0,0,1-.177.067Zm53.326-.106a.3.3,0,0,1-.218-.094c-.179-.191-.361-.383-.546-.569a.3.3,0,1,1,.425-.419c.187.19.374.385.557.579a.3.3,0,0,1-.218.5Zm-52.041-.833a.3.3,0,0,1-.172-.543q.323-.23.66-.456a.3.3,0,0,1,.335.493c-.22.15-.437.3-.65.45A.294.294,0,0,1,101.14,35.984Zm50.926-.3a.3.3,0,0,1-.208-.084c-.188-.183-.38-.367-.572-.545a.3.3,0,1,1,.407-.437c.195.182.39.368.581.555a.3.3,0,0,1-.208.511Zm-49.608-.595a.3.3,0,0,1-.164-.549c.221-.146.446-.289.674-.433a.3.3,0,1,1,.318.507q-.338.211-.666.426a.3.3,0,0,1-.162.048ZM150.9,34.6a.3.3,0,0,1-.2-.076c-.2-.176-.4-.35-.6-.519a.3.3,0,1,1,.388-.454c.2.171.4.348.6.527a.3.3,0,0,1-.2.521Zm-47.1-.361a.3.3,0,0,1-.154-.555q.339-.2.69-.408a.3.3,0,1,1,.3.517c-.23.132-.456.267-.68.4a.3.3,0,0,1-.154.048Zm45.882-.676a.3.3,0,0,1-.188-.066c-.2-.165-.412-.33-.619-.49a.3.3,0,1,1,.361-.473c.211.162.422.331.629.5a.3.3,0,0,1-.188.531Zm-44.505-.12a.3.3,0,0,1-.144-.56q.347-.194.7-.384a.3.3,0,0,1,.282.527q-.353.188-.694.378a.29.29,0,0,1-.146.042Zm1.406-.75a.3.3,0,0,1-.136-.564q.354-.181.722-.361a.3.3,0,1,1,.262.536q-.361.176-.708.354a.285.285,0,0,1-.141.04Zm41.838-.1a.29.29,0,0,1-.176-.058c-.213-.155-.428-.309-.643-.457a.3.3,0,0,1,.341-.49c.218.15.438.308.655.466a.3.3,0,0,1-.177.539Zm-40.409-.6a.3.3,0,0,1-.12-.568q.361-.17.722-.333a.3.3,0,1,1,.241.545q-.361.162-.722.329a.3.3,0,0,1-.12.035Zm39.1-.308a.293.293,0,0,1-.164-.049c-.22-.143-.444-.286-.664-.422a.3.3,0,1,1,.313-.508c.226.138.454.284.679.431a.3.3,0,0,1-.164.549Zm-37.647-.341a.3.3,0,0,1-.12-.573q.361-.155.74-.307a.3.3,0,1,1,.224.552q-.368.15-.729.3a.31.31,0,0,1-.114.03Zm36.292-.495a.294.294,0,0,1-.144-.035c-.226-.131-.459-.26-.687-.384a.3.3,0,0,1,.284-.526c.241.128.471.259.7.394a.3.3,0,0,1-.149.557Zm-34.817-.1a.3.3,0,0,1-.107-.576q.369-.144.75-.283a.3.3,0,1,1,.2.561q-.373.137-.74.279a.3.3,0,0,1-.107.026Zm1.495-.548a.3.3,0,0,1-.1-.58q.375-.13.758-.256a.3.3,0,0,1,.187.567c-.253.083-.5.167-.75.254a.306.306,0,0,1-.1.023Zm31.922-.106a.3.3,0,0,1-.134-.032c-.241-.12-.473-.232-.708-.342a.3.3,0,1,1,.252-.542c.241.112.481.23.722.35a.3.3,0,0,1-.135.566Zm-30.41-.391a.3.3,0,0,1-.088-.584c.253-.078.509-.155.767-.231a.3.3,0,0,1,.167.574c-.255.073-.507.15-.757.227a.285.285,0,0,1-.089.02Zm28.967-.279a.282.282,0,0,1-.12-.024c-.241-.1-.481-.2-.722-.295a.3.3,0,1,1,.215-.557c.248.1.5.2.746.3a.3.3,0,0,1-.12.573Zm-27.439-.167a.3.3,0,0,1-.079-.586q.385-.1.774-.206a.3.3,0,1,1,.148.579q-.385.1-.764.2a.3.3,0,0,1-.078.018Zm1.54-.4a.3.3,0,0,1-.069-.588q.386-.094.78-.181a.3.3,0,1,1,.13.583q-.389.087-.771.178a.277.277,0,0,1-.07.016Zm24.415-.011a.284.284,0,0,1-.1-.017c-.248-.085-.5-.168-.746-.241a.3.3,0,0,1,.177-.57c.254.078.511.162.765.252a.3.3,0,0,1-.1.58Zm-22.866-.336a.3.3,0,0,1-.06-.591q.39-.082.785-.156a.3.3,0,0,1,.112.587q-.39.073-.776.154a.352.352,0,0,1-.055.013Zm21.34-.134a.281.281,0,0,1-.077-.01c-.254-.069-.51-.132-.762-.189a.3.3,0,0,1,.134-.582c.259.059.522.12.783.195a.3.3,0,0,1-.078.586Zm-19.777-.165a.3.3,0,0,1-.051-.592q.391-.069.788-.131a.3.3,0,1,1,.094.59c-.261.041-.522.084-.78.13Zm18.226-.189a.279.279,0,0,1-.055,0c-.258-.048-.519-.091-.773-.129a.3.3,0,0,1,.085-.591c.264.039.531.083.8.132a.3.3,0,0,1-.054.592Zm-16.655-.06a.3.3,0,0,1-.042-.595q.394-.057.793-.107a.3.3,0,1,1,.076.592q-.4.051-.785.106a.241.241,0,0,1-.037.011Zm15.085-.159h-.032q-.4-.043-.788-.082a.3.3,0,1,1,.058-.593q.4.039.794.081a.3.3,0,0,1-.031.6Zm-13.5-.032a.3.3,0,0,1-.034-.6c.264-.029.528-.058.8-.084a.3.3,0,0,1,.059.595q-.4.04-.787.083Zm11.914-.12h-.025c-.265-.023-.527-.043-.789-.063a.3.3,0,0,1,.043-.6c.265.019.53.04.8.063a.3.3,0,0,1-.025.6Zm-10.333-.036a.3.3,0,0,1-.025-.6q.4-.032.8-.061a.3.3,0,1,1,.042.6c-.266.018-.528.039-.789.06Zm8.747-.081H133.6l-.791-.043a.3.3,0,1,1,.029-.6c.265.012.531.028.8.043a.3.3,0,1,1-.017.6Zm-7.159-.03a.3.3,0,0,1-.017-.6c.265-.014.532-.028.8-.039a.3.3,0,1,1,.025.6q-.4.017-.791.039Zm5.57-.048h-.012q-.4-.014-.791-.024a.3.3,0,1,1,.014-.6q.4.01.8.024a.3.3,0,0,1-.011.6Zm-3.98-.018a.3.3,0,0,1-.007-.6q.4-.011.8-.017h0a.3.3,0,1,1,0,.6q-.4,0-.791.017Zm2.388-.02h-.793a.3.3,0,0,1,0-.6h.8a.3.3,0,1,1,0,.6Z"/><path class="w" d="M334.96,177.1s-16.126.026-40.711.079c-.367-.158-.563-.249-.563-.249s2.779-15.2,17.2-18.468,14.588-17.2,23.588-19.978c7.4-2.287,14.024.734,18.52-.04C360.1,160.924,334.96,177.1,334.96,177.1Z"/><rect class="x" width="326.776" height="1.264" rx="0.409" transform="translate(31.911 176.929)"/><path class="y" d="M120.957,121.67s-.184.2-.525.563c-1.246,1.35-4.626,5.021-8.348,9.241-.879,1-1.784,2.031-2.687,3.066-1.35,1.564-2.674,3.119-3.906,4.627l-.012.012c-.38.446-.734.879-1.083,1.311-.734.9-1.416,1.77-2.046,2.583-1.887,2.465-3.211,4.453-3.46,5.466-1.507,6.3,1.429,24.051,2.189,28.39H59.89c1.246-9.018,2.976-21.757,3.2-23.7.341-3.054-10.315-16.161-10.5-25.73s6.147-16.4,7.144-25.81c.481-4.43-.066-10.2-.774-15.112-.367-2.609-.8-4.941-1.14-6.712a2.457,2.457,0,0,1,.655-2.214,2.154,2.154,0,0,1,.472-.38,2.413,2.413,0,0,1,2.32-.183c2.359,1.008,4.981,3.683,5.662,10.35,0,0,1.979,1.246,5.175,3.277,1.3.812,2.792,1.757,4.443,2.805,1.273.8,2.64,1.67,4.065,2.574.091.052.184.12.276.17.576.367,1.14.734,1.743,1.114h.013c.209.131.42.274.643.407q.57.372,1.179.746a1.529,1.529,0,0,0,.249.144c2.6,1.651,5.308,3.382,8.048,5.126h.013c.445.261.892.55,1.337.842.341.223.694.432,1.048.655.433.289.879.563,1.324.842H96.5c3.106,1.966,6.147,3.905,8.991,5.7.446.288.892.563,1.324.842.354.223.7.445,1.036.655.459.289.877.563,1.311.852h.013c5.426,3.421,9.621,6.094,11.154,7.078C120.734,121.525,120.957,121.656,120.957,121.67Z"/><path class="z" d="M61.059,84.278a2.139,2.139,0,0,1-1.805,2.255l-.285.043c-.374-2.6-.8-4.934-1.141-6.708a9.388,9.388,0,0,1-.354-2.583c1.792-.876,2.482,1.243,2.7,2.1A28.31,28.31,0,0,1,61.059,84.278Z"/><path class="aa" d="M109.4,134.54c-1.35,1.565-2.674,3.119-3.906,4.627l-.012.012c-.38.446-.734.879-1.083,1.311-.734.9-1.416,1.77-2.046,2.583-1.887,2.465-3.211,4.453-3.46,5.466-1.507,6.3,1.429,24.051,2.189,28.39H74.283c4.968-7.406,5.609-20.447,5.649-26.438a14.82,14.82,0,0,1,1.284-5.229A63.224,63.224,0,0,1,87.639,134c2.176-3.171,4.181-5.714,4.993-6.724v-.012c.262-.3.394-.473.394-.473l14.811-.628h.013l.2,1.048.158.891.681,3.7Z"/><path class="ab" d="M119.847,141.264,75.52,145.846a2.549,2.549,0,0,1-2.788-2.266L63.571,54.936a2.547,2.547,0,0,1,2.266-2.787l44.326-4.582a2.548,2.548,0,0,1,2.788,2.266l9.161,88.644a2.547,2.547,0,0,1-2.265,2.787Z"/><path class="u" d="M124.633,140.769l-44.327,4.582a2.548,2.548,0,0,1-2.787-2.266L68.357,54.441a2.545,2.545,0,0,1,2.265-2.787l44.327-4.582a2.549,2.549,0,0,1,2.79,2.27l9.161,88.644a2.548,2.548,0,0,1-2.266,2.784Z"/><path class="ac" d="M100.941,52.61a.5.5,0,0,0-.551-.448L87.553,53.486a.5.5,0,0,0,.1,1l12.836-1.324a.5.5,0,0,0,.448-.551Z"/><path class="ac" d="M85.274,53.724a.5.5,0,1,0,.551.448.5.5,0,0,0-.551-.448Z"/><path class="ad" d="M105.768,137.488a3.239,3.239,0,1,0-2.888,3.554,3.239,3.239,0,0,0,2.888-3.554Z"/><rect class="ae" width="41.069" height="75.812" transform="translate(72.454 58.868) rotate(-5.768)"/><rect class="af" width="41.274" height="8.844" transform="translate(79.897 125.914) rotate(-5.9)"/><path class="ag" d="M93.118,127.688l21.189-2.189a.448.448,0,1,0-.093-.891l-21.187,2.184a.449.449,0,0,0-.4.492h0A.449.449,0,0,0,93.118,127.688Z"/><path class="ag" d="M114.908,126.954a.449.449,0,0,0-.491-.4l-21.189,2.19a.448.448,0,0,0,.093.891l21.188-2.188A.449.449,0,0,0,114.908,126.954Z"/><path class="ab" d="M89.788,125.762a2.565,2.565,0,0,0-.223-.842,2.983,2.983,0,0,0-3.093-1.861,3.023,3.023,0,0,0-2.662,2.45,3.289,3.289,0,0,0-.039.879c.17,1.651,3.565,5.033,3.565,5.033S89.959,127.423,89.788,125.762Zm-2.87,1.685a1.412,1.412,0,0,1-1.546-1.259,1.473,1.473,0,0,1,.183-.864,1.431,1.431,0,0,1,1.075-.7,1.374,1.374,0,0,1,1.193.459,1.408,1.408,0,0,1-.9,2.36Z"/><rect class="ab" width="23.798" height="19.624" transform="translate(104.47 86.715) rotate(174.1)"/><rect class="ag" width="20.033" height="19.624" transform="translate(90.614 68.421) rotate(-5.9)"/><path class="ad" d="M112.047,80.931l.511,4.95L92.632,87.94,90.615,68.421Z"/><path class="ag" d="M80.3,84.211l3.751-.388L83.611,82.8l.252-.788-3.751.388Z"/><path class="ag" d="M79.487,76.349l3.751-.388-.44-1.021.253-.789L79.3,74.54Z"/><path class="ad" d="M111.235,73.068l-3.751.388.221-1.089-.408-.721,3.75-.388Z"/><path class="ah" d="M84.363,94.721a2.633,2.633,0,0,0-.394-.209,2.689,2.689,0,0,0-1.219-.171A2.516,2.516,0,0,0,80.614,96.1a2.347,2.347,0,0,0-.1,1.009,2.527,2.527,0,0,0,2.768,2.241,2.314,2.314,0,0,0,1.444-.668,2.437,2.437,0,0,0,.8-2.1,2.491,2.491,0,0,0-1.158-1.861Zm.1,3.814a2.2,2.2,0,0,1-1.219.525,2.222,2.222,0,0,1-2.437-1.98,2.127,2.127,0,0,1,.078-.812,2.183,2.183,0,0,1,1.9-1.638,1.946,1.946,0,0,1,1.035.158,1.673,1.673,0,0,1,.433.221,2.22,2.22,0,0,1,.209,3.526Z"/><path class="ab" d="M81.559,95.7l1.595,2.48,2.135-6.14-2.321,4.334Z"/><path class="ah" d="M86.473,105.823a2.527,2.527,0,0,0-1.154-1.875,3.935,3.935,0,0,0-.394-.209,2.714,2.714,0,0,0-1.219-.171,2.518,2.518,0,1,0,2.768,2.255Zm-2.287,2.463a2.22,2.22,0,0,1-.445-4.417,2.094,2.094,0,0,1,1.035.144,1.677,1.677,0,0,1,.433.223,2.2,2.2,0,0,1,.97,1.611,2.241,2.241,0,0,1-1.988,2.438Z"/><path class="ab" d="M82.512,104.933l1.595,2.479,2.136-6.139-2.323,4.334Z"/><path class="ah" d="M87.428,115.051a2.516,2.516,0,1,0-2.241,2.768,2.516,2.516,0,0,0,2.241-2.768Zm-2.287,2.465a2.475,2.475,0,1,1,.006,0Z"/><path class="ah" d="M112.891,93.361,89.183,95.81a.439.439,0,0,1-.481-.391l-.01-.1a.439.439,0,0,1,.391-.481l23.708-2.45a.442.442,0,0,1,.481.391l.01.1a.44.44,0,0,1-.391.481Z"/><path class="ah" d="M113.069,95.087l-23.7,2.449a.438.438,0,0,1-.481-.391l-.011-.1a.439.439,0,0,1,.391-.481l23.708-2.45a.442.442,0,0,1,.481.392l.01.1a.439.439,0,0,1-.4.481Z"/><path class="ah" d="M113.848,102.606,90.14,105.055a.44.44,0,0,1-.481-.391l-.01-.1a.44.44,0,0,1,.391-.481l23.7-2.449a.44.44,0,0,1,.481.391l.01.1a.442.442,0,0,1-.385.481Z"/><path class="ah" d="M114.025,104.332l-23.708,2.449a.44.44,0,0,1-.481-.391l-.01-.1a.442.442,0,0,1,.391-.481l23.708-2.449a.442.442,0,0,1,.481.391l.01.1a.44.44,0,0,1-.391.481Z"/><path class="ah" d="M114.8,111.85,91.1,114.3a.442.442,0,0,1-.481-.391l-.01-.1A.44.44,0,0,1,91,113.33l23.708-2.449a.44.44,0,0,1,.481.391l.01.1a.439.439,0,0,1-.4.481Z"/><path class="ah" d="M114.98,113.576l-23.7,2.45a.442.442,0,0,1-.481-.391l-.01-.1a.44.44,0,0,1,.391-.481l23.708-2.449a.44.44,0,0,1,.481.391l.01.1a.439.439,0,0,1-.4.481Z"/><path class="y" d="M119,61.666s6.434-5.716,10.654-2.473-9.494,13.7-9.494,13.7Z"/><path class="y" d="M126.448,85.128l-7.477,4.135A4.515,4.515,0,0,1,112.85,87.5L111.629,85.3a4.518,4.518,0,0,1,1.762-6.121l7.476-4.136a4.518,4.518,0,0,1,6.121,1.762l1.222,2.207a4.518,4.518,0,0,1-1.761,6.121Z"/><path class="y" d="M127.742,97.654l-7.476,4.136a4.517,4.517,0,0,1-6.121-1.761l-1.222-2.207A4.517,4.517,0,0,1,114.69,91.7l7.477-4.136a4.518,4.518,0,0,1,6.121,1.761l1.22,2.208A4.514,4.514,0,0,1,127.742,97.654Z"/><path class="y" d="M129,109.843l-7.477,4.136a4.517,4.517,0,0,1-6.12-1.761l-1.222-2.208a4.517,4.517,0,0,1,1.761-6.121l7.476-4.135a4.515,4.515,0,0,1,6.121,1.761l1.222,2.207A4.517,4.517,0,0,1,129,109.843Z"/><path class="z" d="M111.983,82.341a26.756,26.756,0,0,1,4.193-2.663,2.143,2.143,0,0,1,2.768.818l1.644,2.739A2.025,2.025,0,0,1,119.919,86a36.234,36.234,0,0,1-4.453,2.366,2.494,2.494,0,0,1-3.154-1.072l-.992-1.765a2.468,2.468,0,0,1,.662-3.19Z"/><path class="z" d="M113.312,95.212a26.752,26.752,0,0,1,4.193-2.662,2.142,2.142,0,0,1,2.768.818l1.639,2.739a2.025,2.025,0,0,1-.667,2.768,36.264,36.264,0,0,1-4.453,2.365,2.492,2.492,0,0,1-3.154-1.071l-.994-1.767A2.469,2.469,0,0,1,113.312,95.212Z"/><path class="z" d="M114.8,107.277a26.757,26.757,0,0,1,4.193-2.663,2.143,2.143,0,0,1,2.768.818l1.639,2.739a2.027,2.027,0,0,1-.667,2.768,36.321,36.321,0,0,1-4.453,2.366,2.5,2.5,0,0,1-3.155-1.072l-1-1.763a2.469,2.469,0,0,1,.67-3.193Z"/><path class="ai" d="M155.231,147.244l17.284,2.72-11.38-8-.621,2.5-4.223.7Z"/><path class="ag" d="M172.516,149.964l-14.306-7.638-14.115-.913Z"/><path class="ag" d="M161.136,141.964l11.38,8-8.722-12.37Z"/><path class="ai" d="M135.8,42.419,122.373,35.5l12,.23-.844,2.06,2.583,2.642Z"/><path class="ag" d="M122.373,35.5l13.855,1.972,10.3,6.559Z"/><path class="ag" d="M134.375,35.732l-12-.23,12.379-4.17Z"/></g></g></svg>