<svg xmlns="http://www.w3.org/2000/svg" xmlns:xlink="http://www.w3.org/1999/xlink" width="46" height="46" viewBox="0 0 46 46"><defs><style>.a{fill:red;stroke:#707070;}.b{clip-path:url(#a);}.c{fill:#3b97d3;}.d{fill:#2c3e50;}</style><clipPath id="a"><circle class="a" cx="23" cy="23" r="23" transform="translate(45 491)"/></clipPath></defs><g class="b" transform="translate(-45 -491)"><g transform="translate(38.945 484.28)"><path class="c" d="M19.068,18.074l-.136.407h-.407l-.226.136-1.175.723H17.08l.271-.542.452-.181.633-.271V18.3l.633-.226m-5.151.181h0l.407.181.9.361.09.5.226.949-1.175.723h1.31l.09.5-.09.045-.316.136L15.227,22,14.821,23l-1.175.949-.271.226v.181l-.859-.226-.859-.181-.181.633h-.5l-.226.181-.361.271a16.815,16.815,0,0,1,3.524-6.778m2.711,2.711-.181.271-.316.136.181-.361h.316m-.859,10.076.587.452.271.226.361-.045.678-.09.316.859.181.452.5.09.633.136.361.723.136.271.271.136.09.045c.9.452,1.853.949,2.756,1.4l-.045.316L22.141,37.1l-.181.271.045.316.136,1.356-.271.633-.633.136-.361.09-.181.271-.5.723-.316.407.226.452.045.136-.407.994-.542.181L18.8,43.2l-.136.407-.045.181a10.214,10.214,0,0,1-1.175-.723l.136-.5.045-.271-.136-.271-.316-.768.045-1.446v-.316l-.181-.271-.542-.768-.045-.09-.09-.09-1.13-.994-.994-1.807.226-.813.09-.316-.09-.181.136-.226.045-.09.045-.09.5-1.356.136.045v-.994l.452-.361m1.265-16.764a17.61,17.61,0,0,0-8.043,14.64l1.4.813,1.446.407.633.813.994.723.587-.09.407.181v.136l-.587,1.491-.407.633.136.316-.361,1.175,1.265,2.3,1.265,1.13.542.768-.045,1.627.407.949-.271,1.13a21.962,21.962,0,0,0,2.44,1.491l.452-.452.226-.542.9-.316.678-1.762-.226-.452.5-.723,1.039-.226.542-1.265-.136-1.581.859-1.175.136-1.175c-1.13-.587-2.3-1.175-3.434-1.762l-.5-1.13-1.039-.226L18.3,30.68l-1.4.136-1.175-.859-1.265,1.084v.181a7.355,7.355,0,0,1-1.356-.316l-.452-.768V29.28l-.678.09c.09-.542.316-1.31.361-1.672h-.5l-.5.633-.5.226-.678-.407-.09-.859.136-.949,1.039-.813h.859l.136-.452,1.039.271.768.949.136-1.581,1.31-1.084.5-1.175.994-.407.542-.768,1.265-.226.633-.9h-1.9l1.175-.723h.859l1.22-.452.136-.452-.407-.407-.5-.136.136-.452-.361-.723-.813.316.136-.633-.994-.542-.768,1.356.09.5-.768.271-.5,1.039-.226-.949-1.31-.542-.226-.723,1.762-1.039.768-.723.09-.813Z"/><path class="c" d="M16.718,15.769H17.4L17.758,15c.316-.226.587-.407.9-.633l.678.226c.452.316.949.633,1.4.949l.678-.633-.768-.316-.361-.723-1.31-.136v-.407l-.452.136c-.09.045-.136.09-.226.09l-.226.5-.136-.271c-.09.045-.226.136-.316.181l.045.5-.542.452Z"/><path class="c" d="M20.785,20.469l.407-.633-.633-.5Z"/><path class="c" d="M26.614,12.381h.5l.316.136-.361.949a23.66,23.66,0,0,1-2.621.994l-.316.09-.09.181V13.375l-.361-.271-.316-.226,1.175-.316a10.769,10.769,0,0,1,2.078-.181m0-.9a19.141,19.141,0,0,0-2.3.136L22.1,12.2l-.5.5,1.536,1.084v.678l-.542.633.9,1.672.542-.316.678-1.084a25.294,25.294,0,0,0,3.073-1.175l.859-2.124-1.265-.5a2.37,2.37,0,0,0-.768-.09Z"/><path class="c" d="M28.1,15.318l-.271-.09h0l-.045.5.5.316.813-.587L28.692,15Z"/><path class="c" d="M18.887,15.408l.723.361h.271v-.316l-.587-.361Z"/><path class="c" d="M30.229,17.938l-.5.136.136.859.633-.316Z"/><path class="c" d="M19.61,12.923Z"/><path class="c" d="M28.421,47.9c-.587.045-1.22.09-1.807.09a18.751,18.751,0,1,1,15.815-8.675c.949-.5,1.988-1.13,2.937-1.627a20.244,20.244,0,0,0,1.807-8.45A20.559,20.559,0,1,0,26.614,49.794a22.311,22.311,0,0,0,3.931-.361C29.957,48.98,29.189,48.438,28.421,47.9Z"/><path class="c" d="M27.924,30.816l1.762,2.033.859-.768.361.452.949-.587.316.407h.949l.542.587-.316,1.039.678.768-.045,1.31.5.949-.361.768c-.045.587-.09,1.175-.09,1.762,0,.045.045.09.045.136a2.458,2.458,0,0,1,.9-.181c0-.045,0-.045-.045-.09,0-.361.045-.723.045-1.13v-.226l.271-.633a.911.911,0,0,0,0-.768l-.361-.723.045-1.084A1.08,1.08,0,0,0,34.7,34.2l-.316-.361.181-.542a1.082,1.082,0,0,0-.181-.9l-.542-.587a.92.92,0,0,0-.678-.271h-.5l-.045-.045a.9.9,0,0,0-.723-.316.763.763,0,0,0-.452.136l-.316.181a.868.868,0,0,0-.542-.181.952.952,0,0,0-.587.226l-.181.181L28.737,30.5l-.452-1.084.361-.542a.954.954,0,0,0-.045-1.084l.5-1.175c.542-.678,1.084-1.31,1.672-1.943l.859-.226,1.084-.136.5.136,1.13,1.13a.892.892,0,0,0,.633.271h.045a.791.791,0,0,0,.633-.316l.271-.316.136-.045.949.271c.09,0,.136.045.226.045h.9a.789.789,0,0,0,.542-.181l.633-.452c.045-.045.136-.09.181-.136l.271-.361a.847.847,0,0,0,.181-.723A.879.879,0,0,0,39.537,23l-.678-.587a.729.729,0,0,0-.407-.136l-.633-.045c-.226-.316-.452-.633-.723-.949a.892.892,0,0,0-.633-.271.851.851,0,0,0-.361.09h-.045a1.133,1.133,0,0,0-.181-.316l-.678-.678a.892.892,0,0,0-.633-.271H34.3a.883.883,0,0,0-.678.316.573.573,0,0,0-.271-.045h-.181l-1.039.226c-.045,0-.09.045-.136.045l-.045-.09.316-.181a.918.918,0,0,0,.452-.9.624.624,0,0,0,.136-.181h.226a1.063,1.063,0,0,0,.361-.09l.768.181h.181a.952.952,0,0,0,.587-.226l1.039-.859a.838.838,0,0,0,.316-.542v-.045l.633-.407a.721.721,0,0,0,.316-.407h0a.952.952,0,0,0,.587.226h.09c.09,0,.181-.045.271-.045A16.435,16.435,0,0,1,42.88,24.58l-.271-.271a.892.892,0,0,0-.633-.271.543.543,0,0,0-.361.09.893.893,0,0,0-.542.813v1.039a.888.888,0,0,0,.407.768l.633.407.407.407a1.077,1.077,0,0,0,.5.271l-.09.09-1.039.723c-.045.045-.09.045-.09.09l-.9.859a.983.983,0,0,0-.226,1.039.893.893,0,0,0,.813.542h.045l-.452,1.175-1.31,2.124a.911.911,0,0,0-.136.5v2.214a.407.407,0,0,0,.045.226l.09.407-.587.361c-.045.045-.09.045-.09.09l-.813.678a.791.791,0,0,0-.316.633h0a6.741,6.741,0,0,0,.949.09l-.045-.045.813-.678.768-.5.361-.407-.226-.859V34.973l1.356-2.214.813-2.033v-.452c-.723.045-.768.09-1.175.136l.9-.859,1.13-.813.587-.723v-.226c0-.226.045-.407.045-.633-.271-.271-.226-.5-.361-.768l-.813.723-.452-.452-.723-.5V25.123l.813.813.9-.136c.136.136.316.271.452.407a17.246,17.246,0,0,0-5.964-10.483l-.316.407-.9-.813h.587c-.542-.361-1.13-.9-1.672-1.265l-.226-.181-1.4.316-.949.542v.5l-1.22.859.407,1.265.768-.542.5.542.542.316.361-.949-.226-.407L34.566,16l.768-.587H35.7l-.316.542v.723c0-.09.633-.136.949-.181l-.9.633-.09.407L34.3,18.39l-1.084-.226v-.633l-.5.271.226.5h-.768l-.226.452-.452-.542c-.181-.452-.361-.994-.542-1.356h-.587v.633l.361.316v.723l-.136.9.813-.181.181-.181.09.407-.452.226-.949.181.542.5.136.452h-.678l-1.446.678v1.084h.994l.407.587.859-.271.361-.859.633-.407.136-.316,1.039-.226.542.633.633.316-.361.678.542-.181.271-.768-.678-.994h.271l.678.678.136.949.633.723.136-1.039.361-.181a7.4,7.4,0,0,1,.9,1.175l1.039.09.633.361-.226.407-.633.452h-.9l-1.175-.316-.633.136-.452.5-1.31-1.31-.9-.226-1.31.136-1.175.316c-.678.768-1.31,1.491-1.943,2.3l-.768,1.807.361.407-.633.949Zm2.53-8.856-.181-.181.226-.136h.09Z"/><path class="d" d="M51.827,37.142c-.723-.994-2.937-.633-3.841,0s-6.733,3.841-6.733,3.841-3.841-.452-5.693-.633-1.943,1.084-.994,1.4a9.3,9.3,0,0,1,2.124,1.265l-4.247,2.395s-2.124-.723-4.247-1.31-2.576.542-1.581,1.31c.994.813,5.332,3.886,5.332,3.886l6.371-2.576s0,1.672-.09,2.576.723,2.3,1.672.813c.994-1.491,3.118-5.6,3.118-5.6s6.145-3.841,7.275-4.609S52.55,38.091,51.827,37.142Zm-.678.678c-.045.136-.181.542-1.356,1.31-1.13.768-7.184,4.564-7.23,4.609l-.226.136L42.2,44.1c0,.045-2.124,4.067-3.073,5.513h0c0-.09-.045-.181,0-.226.09-.9.09-2.576.09-2.666V45.365l-7.184,2.892c-1.039-.768-3.8-2.756-4.744-3.479a2.267,2.267,0,0,1,.633.136c2.078.587,4.2,1.31,4.247,1.31l.361.136,5.784-3.253-1.084-.813a11.46,11.46,0,0,0-1.627-1.039c1.9.181,5.422.587,5.467.587l.271.045.271-.136c.587-.316,5.919-3.253,6.823-3.886a3.261,3.261,0,0,1,1.717-.452,1.285,1.285,0,0,1,.859.226C51.149,37.729,51.149,37.774,51.149,37.82Z"/></g></g></svg>