<svg xmlns="http://www.w3.org/2000/svg" xmlns:xlink="http://www.w3.org/1999/xlink" width="24" height="24" viewBox="0 0 24 24"><defs><style>.a{fill:#fff;}.a,.c{stroke:#f5671a;}.b{clip-path:url(#a);}.c,.f{fill:none;}.d{fill:#f5671a;}.e{stroke:none;}</style><clipPath id="a"><circle class="a" cx="12" cy="12" r="12" transform="translate(170 215)"/></clipPath></defs><g class="b" transform="translate(-170 -215)"><g class="c" transform="translate(170 215)"><circle class="e" cx="12" cy="12" r="12"/><circle class="f" cx="12" cy="12" r="11.5"/></g><path class="d" d="M17.439,5.833a5.4,5.4,0,0,0-4.5-2.815c-.093,0-.185-.006-.28-.006s-.187,0-.28.006a5.4,5.4,0,0,0-4.5,2.815,5.617,5.617,0,0,0,.011,5.519l4.77,8.464,4.77-8.464A5.617,5.617,0,0,0,17.439,5.833Zm-4.781,5.8a2.523,2.523,0,1,1,2.523-2.523A2.525,2.525,0,0,1,12.658,11.633ZM14.34,9.111a1.682,1.682,0,1,1-1.682-1.682A1.684,1.684,0,0,1,14.34,9.111Z" transform="translate(169.342 215.586)"/></g></svg>